<svg width="268" height="90" viewBox="0 0 268 90" fill="none" xmlns="http://www.w3.org/2000/svg">
<path d="M0 0H268V90H0V0Z" fill="#6B6B91"/>
<g clip-path="url(#clip0_29_2)">
<path d="M106 45C106 46.9947 105.833 48.9512 105.512 50.8543C104.621 56.1453 102.544 61.033 99.5619 65.2344C81.6463 74.4957 60.3537 74.4957 42.4381 65.2344C39.4563 61.033 37.3795 56.1453 36.4881 50.8543C36.1668 48.9512 36 46.9947 36 45C36 38.6809 37.6748 32.7541 40.6047 27.6367C46.6367 17.0998 57.9898 10 71 10C84.0102 10 95.3633 17.0998 101.395 27.6367C104.325 32.7541 106 38.6809 106 45Z" fill="#C4F258"/>
<path d="M106 45C106 52.5387 103.616 59.5209 99.5619 65.2344C81.6477 74.4957 60.3564 74.4957 42.4408 65.2357C38.3844 59.5223 36 52.54 36 45C36 38.6809 37.6748 32.7541 40.6047 27.6367C46.6367 38.1736 57.9898 45.2734 71 45.2734C84.0102 45.2734 95.3633 38.1736 101.395 27.6367C104.325 32.7541 106 38.6809 106 45Z" fill="#B1D511"/>
<path d="M97.3744 67.686V68.0087C93.2742 72.705 87.9408 76.2966 81.8787 78.2763C80.6127 78.6892 79.3152 79.0337 77.9891 79.3017V67.686H97.3744Z" fill="#A52817"/>
<path d="M97.3744 67.686V68.0087C94.6414 71.1396 91.3602 73.7796 87.6797 75.7771V67.686H97.3744Z" fill="#7F0000"/>
<path d="M97.9519 49.8315C97.8107 52.415 96.7544 54.958 94.7811 56.9313C92.8077 58.9047 90.2648 59.961 87.6813 60.1021C87.8205 57.5166 88.8778 54.9748 90.8512 53.0014C92.8246 51.028 95.3664 49.9707 97.9519 49.8315Z" fill="#0F7793"/>
<path d="M97.9519 49.8315C97.8107 52.415 96.7544 54.958 94.7811 56.9313C92.8077 58.9047 90.2648 59.961 87.6813 60.1021L97.9519 49.8315Z" fill="#005B79"/>
<path d="M77.4108 49.8315C79.9942 49.9728 82.5372 51.0291 84.5106 53.0023C86.484 54.9757 87.5403 57.5187 87.6813 60.1021C85.0959 59.9629 82.554 58.9057 80.5806 56.9323C78.6072 54.9589 77.5499 52.4169 77.4108 49.8315Z" fill="#0F7793"/>
<path d="M77.4108 49.8315C79.9942 49.9728 82.5372 51.0291 84.5106 53.0023C86.484 54.9757 87.5403 57.5187 87.6813 60.1021L77.4108 49.8315Z" fill="#005B79"/>
<path d="M86.4428 43.5176H88.9185V66.4159H86.4428V43.5176Z" fill="#0F7793"/>
<path d="M87.6802 43.5176H88.9185V66.4159H87.6802V43.5176Z" fill="#005B79"/>
<path d="M86.4428 61.9312H87.6803V66.4158H86.4428V61.9312Z" fill="#005B79"/>
<path d="M87.6802 61.9312H88.9185V66.4158H87.6802V61.9312Z" fill="#004C60"/>
<path d="M99.7107 38.5227C99.7107 37.5945 99.3828 36.7534 98.843 36.0965C98.3047 35.4409 97.5528 34.9709 96.705 34.784C97.641 33.3214 97.4988 31.3281 96.1863 30.0156C95.4346 29.264 94.4578 28.8966 93.4849 28.8966C92.7622 28.8966 92.042 29.0994 91.418 29.4982C91.0454 27.8026 89.5354 26.4927 87.6805 26.4927C86.7523 26.4927 85.9125 26.8205 85.2555 27.3589C84.6 27.8987 84.1299 28.6504 83.943 29.4982C82.4804 28.5622 80.4872 28.7044 79.1747 30.0155C78.4216 30.7686 78.0544 31.744 78.0544 32.7169C78.0544 33.4396 78.2584 34.1599 78.6573 34.7838C76.9604 35.1564 75.6519 36.6665 75.6519 38.5227C75.6519 39.4495 75.9783 40.2921 76.5181 40.9477C77.0579 41.6032 77.8083 42.0746 78.6573 42.2602C77.7214 43.7228 77.8622 45.716 79.1747 47.0285C79.9277 47.7802 80.9046 48.1476 81.8761 48.1476C82.5988 48.1476 83.3189 47.9448 83.943 47.546C84.3156 49.2416 85.8256 50.5515 87.6805 50.5515C88.6087 50.5515 89.4486 50.2236 90.1055 49.6839C90.7611 49.1455 91.2311 48.3936 91.418 47.5459C92.8806 48.4818 94.8751 48.3396 96.1863 47.0285C96.9394 46.2755 97.3066 45.2986 97.3066 44.3257C97.3066 43.603 97.1038 42.8842 96.7049 42.2602C98.4008 41.8876 99.7107 40.3777 99.7107 38.5227Z" fill="#FF6E7C"/>
<path d="M96.7052 42.2602C97.1041 42.8842 97.3069 43.603 97.3069 44.3257C97.3069 45.2986 96.9397 46.2755 96.1866 47.0285C94.8753 48.3398 92.8809 48.482 91.4183 47.5459C91.2314 48.3936 90.7613 49.1453 90.1058 49.6839C89.4488 50.2236 88.609 50.5515 87.6808 50.5515V26.4927C89.5358 26.4927 91.0457 27.8026 91.4183 29.4982C92.0423 29.0992 92.7624 28.8966 93.4852 28.8966C94.4581 28.8966 95.4349 29.2638 96.1866 30.0156C97.4991 31.3281 97.6413 33.3214 96.7053 34.784C97.5531 34.9709 98.3048 35.4409 98.8433 36.0965C99.3831 36.7534 99.711 37.5946 99.711 38.5227C99.7107 40.3777 98.4008 41.8876 96.7052 42.2602Z" fill="#FF4852"/>
<path d="M92.6768 38.5225C92.6768 41.2805 90.4401 43.5172 87.6807 43.5172C84.9213 43.5172 82.6859 41.2805 82.6859 38.5225C82.6859 35.7631 84.9213 33.5264 87.6807 33.5264C90.4401 33.5264 92.6768 35.7631 92.6768 38.5225Z" fill="#FED110"/>
<path d="M92.6767 38.5225C92.6767 41.2805 90.44 43.5172 87.6806 43.5172V33.5264C90.44 33.5264 92.6767 35.7631 92.6767 38.5225Z" fill="#FFBC00"/>
<path d="M89.8844 38.5223C89.8844 39.7387 88.898 40.7252 87.6809 40.7252C86.464 40.7252 85.4781 39.7387 85.4781 38.5223C85.4781 37.3054 86.464 36.3188 87.6809 36.3188C88.898 36.319 89.8844 37.3054 89.8844 38.5223Z" fill="#FFBC00"/>
<path d="M89.8844 38.5223C89.8844 39.7387 88.898 40.7252 87.6809 40.7252V36.3188C88.898 36.319 89.8844 37.3054 89.8844 38.5223Z" fill="#FFA300"/>
<path d="M92.8627 65.2346C92.1791 66.1957 91.449 67.1227 90.6752 68.0086C89.818 68.9902 88.9074 69.924 87.9463 70.8045H77.1824C76.2049 70.8045 75.4147 70.0129 75.4147 69.0367V66.3352C75.4147 65.359 76.2049 64.5674 77.1824 64.5674H91.4819C92.041 64.5674 92.5401 64.8271 92.8627 65.2346Z" fill="#DB351D"/>
<path d="M99.5619 65.2346C98.8784 66.1957 98.1483 67.1227 97.3744 68.0086C96.5172 68.9902 95.6067 69.924 94.6455 70.8045H87.6811V64.5674H98.1811C98.7403 64.5674 99.2393 64.8271 99.5619 65.2346Z" fill="#A52817"/>
<path d="M64.0109 67.686V79.3017C56.341 77.7472 49.5802 73.6853 44.6255 68.0073V67.686H64.0109Z" fill="#A52817"/>
<path d="M64.0109 67.686V79.3017C60.5697 78.603 57.3103 77.4026 54.3176 75.7757V67.686H64.0109Z" fill="#7F0000"/>
<path d="M64.5892 49.8315C64.448 52.415 63.3917 54.958 61.4184 56.9313C59.445 58.9047 56.902 59.961 54.3186 60.1021C54.4578 57.5166 55.515 54.9748 57.4884 53.0014C59.4618 51.028 62.0038 49.9707 64.5892 49.8315Z" fill="#0F7793"/>
<path d="M64.5892 49.8315C64.448 52.415 63.3917 54.958 61.4184 56.9313C59.445 58.9047 56.902 59.961 54.3186 60.1021L64.5892 49.8315Z" fill="#005B79"/>
<path d="M44.048 49.8315C46.6315 49.9728 49.1744 51.0291 51.1478 53.0023C53.1212 54.9757 54.1775 57.5187 54.3186 60.1021C51.7331 59.9629 49.1913 58.9057 47.2179 56.9323C45.2445 54.9589 44.1872 52.4169 44.048 49.8315Z" fill="#0F7793"/>
<path d="M44.048 49.8315C46.6315 49.9728 49.1744 51.0291 51.1478 53.0023C53.1212 54.9757 54.1775 57.5187 54.3186 60.1021L44.048 49.8315Z" fill="#005B79"/>
<path d="M53.0801 43.5176H55.5558V66.4159H53.0801V43.5176Z" fill="#0F7793"/>
<path d="M54.3176 43.5176H55.556V66.4159H54.3176V43.5176Z" fill="#005B79"/>
<path d="M53.0801 61.9312H54.3175V66.4158H53.0801V61.9312Z" fill="#005B79"/>
<path d="M54.3176 61.9312H55.556V66.4158H54.3176V61.9312Z" fill="#004C60"/>
<path d="M66.3481 38.5227C66.3481 37.5945 66.0203 36.7534 65.4805 36.0965C64.9421 35.4409 64.1903 34.9709 63.3425 34.784C64.2785 33.3214 64.1363 31.3281 62.8238 30.0156C62.0721 29.264 61.0952 28.8966 60.1224 28.8966C59.3997 28.8966 58.6794 29.0994 58.0554 29.4982C57.6829 27.8026 56.1728 26.4927 54.318 26.4927C53.3898 26.4927 52.5499 26.8205 51.893 27.3589C51.2374 27.8987 50.7674 28.6504 50.5805 29.4982C49.1179 28.5622 47.1246 28.7044 45.8121 30.0155C45.0591 30.7686 44.6919 31.744 44.6919 32.7169C44.6919 33.4396 44.8959 34.1599 45.2948 34.7838C43.5978 35.1564 42.2893 36.6665 42.2893 38.5227C42.2893 39.4495 42.6158 40.2921 43.1556 40.9477C43.6953 41.6032 44.4458 42.0746 45.2948 42.2602C44.3588 43.7228 44.4996 45.716 45.8121 47.0285C46.5652 47.7802 47.542 48.1476 48.5136 48.1476C49.2363 48.1476 49.9565 47.9448 50.5805 47.546C50.953 49.2416 52.4631 50.5515 54.318 50.5515C55.2461 50.5515 56.086 50.2236 56.7429 49.6839C57.3985 49.1455 57.8685 48.3936 58.0554 47.5459C59.5181 48.4818 61.5125 48.3396 62.8238 47.0285C63.5768 46.2755 63.9442 45.2986 63.9442 44.3257C63.9442 43.603 63.7414 42.8842 63.3426 42.2602C65.0382 41.8876 66.3481 40.3777 66.3481 38.5227Z" fill="#FF6E7C"/>
<path d="M63.3425 42.2602C63.7414 42.8842 63.944 43.603 63.944 44.3257C63.944 45.2986 63.5768 46.2755 62.8236 47.0285C61.5124 48.3398 59.5179 48.482 58.0553 47.5459C57.8684 48.3936 57.3984 49.1453 56.7428 49.6839C56.0859 50.2236 55.246 50.5515 54.3178 50.5515V26.4927C56.1728 26.4927 57.6827 27.8026 58.0553 29.4982C58.6793 29.0992 59.3995 28.8966 60.1222 28.8966C61.0951 28.8966 62.0719 29.2638 62.8236 30.0156C64.1361 31.3281 64.2783 33.3214 63.3423 34.784C64.1901 34.9709 64.9418 35.4409 65.4803 36.0965C66.0201 36.7534 66.348 37.5946 66.348 38.5227C66.3481 40.3777 65.0382 41.8876 63.3425 42.2602Z" fill="#FF4852"/>
<path d="M59.3141 38.5225C59.3141 41.2805 57.0774 43.5172 54.318 43.5172C51.5586 43.5172 49.3232 41.2805 49.3232 38.5225C49.3232 35.7631 51.5586 33.5264 54.318 33.5264C57.0774 33.5264 59.3141 35.7631 59.3141 38.5225Z" fill="#FED110"/>
<path d="M59.314 38.5225C59.314 41.2805 57.0773 43.5172 54.3179 43.5172V33.5264C57.0773 33.5264 59.314 35.7631 59.314 38.5225Z" fill="#FFBC00"/>
<path d="M56.5218 38.5223C56.5218 39.7387 55.5354 40.7252 54.3184 40.7252C53.1013 40.7252 52.1155 39.7387 52.1155 38.5223C52.1155 37.3054 53.1014 36.3188 54.3184 36.3188C55.5353 36.3188 56.5218 37.3054 56.5218 38.5223Z" fill="#FFBC00"/>
<path d="M56.5219 38.5223C56.5219 39.7387 55.5354 40.7252 54.3184 40.7252V36.3188C55.5353 36.319 56.5219 37.3054 56.5219 38.5223Z" fill="#FFA300"/>
<path d="M56.3314 66.3352V69.0367C56.3314 70.0129 55.5412 70.8045 54.5636 70.8045H47.3558C45.5279 69.1297 43.8777 67.2621 42.438 65.2346C42.7607 64.8271 43.2597 64.5674 43.8189 64.5674H54.5636C55.5412 64.5674 56.3314 65.359 56.3314 66.3352Z" fill="#DB351D"/>
<path d="M66.5851 66.3358V69.037C66.5851 70.0134 65.7944 70.8042 64.8179 70.8042H54.3186V64.5674H64.8179C65.7945 64.5672 66.5851 65.3593 66.5851 66.3358Z" fill="#A52817"/>
<path d="M81.8787 65.8496V78.276C78.4553 79.3943 74.798 80 71 80C69.0367 80 67.1117 79.8387 65.2359 79.5256C64.8258 79.4586 64.417 79.3834 64.0109 79.3014C62.6861 79.0334 61.3873 78.6889 60.1213 78.2746V65.8496H81.8787Z" fill="#DB351D"/>
<path d="M81.8787 65.8496V78.276C78.4552 79.3943 74.798 80 71 80C69.0367 80 67.1117 79.8387 65.2359 79.5256V65.8496H81.8787Z" fill="#A52817"/>
<path d="M81.8787 65.8496V78.276C78.4553 79.3943 74.7981 80 71 80H70.9987V65.8496H81.8787Z" fill="#7F0000"/>
<path d="M82.5269 45.812C82.3684 48.7114 81.183 51.5655 78.9682 53.7803C76.7535 55.995 73.8995 57.1804 71 57.3389C71.1561 54.4372 72.3429 51.5843 74.5576 49.3696C76.7723 47.1549 79.6252 45.9683 82.5269 45.812Z" fill="#0F7793"/>
<path d="M82.5269 45.812C82.3684 48.7114 81.183 51.5655 78.9682 53.7803C76.7535 55.995 73.8995 57.1804 71 57.3389L82.5269 45.812Z" fill="#005B79"/>
<path d="M59.4731 45.812C62.3725 45.9705 65.2266 47.156 67.4413 49.3707C69.656 51.5854 70.8415 54.4394 71 57.3389C68.0983 57.1828 65.2454 55.9961 63.0306 53.7813C60.8159 51.5666 59.6294 48.7137 59.4731 45.812Z" fill="#0F7793"/>
<path d="M59.4731 45.812C62.3725 45.9705 65.2266 47.156 67.4413 49.3707C69.656 51.5854 70.8415 54.4394 71 57.3389L59.4731 45.812Z" fill="#005B79"/>
<path d="M69.7625 38.7261H72.2361V64.4252H69.7625V38.7261Z" fill="#0F7793"/>
<path d="M70.9988 38.7261H72.2361V64.4252H70.9988V38.7261Z" fill="#005B79"/>
<path d="M69.7625 59.3916H70.9988V64.4248H69.7625V59.3916Z" fill="#005B79"/>
<path d="M70.9988 59.3916H72.2361V64.4248H70.9988V59.3916Z" fill="#004C60"/>
<path d="M84.5008 33.1207C84.5008 32.079 84.1329 31.1348 83.5271 30.3976C82.9228 29.6618 82.0791 29.1344 81.1276 28.9245C82.1781 27.2829 82.0186 25.0461 80.5454 23.5729C79.7017 22.7292 78.6054 22.317 77.5136 22.317C76.7024 22.317 75.8941 22.5445 75.1938 22.9923C74.7758 21.0893 73.081 19.6191 70.9992 19.6191C69.9575 19.6191 69.0148 19.9871 68.2777 20.5913C67.5418 21.1971 67.0144 22.0408 66.8045 22.9923C65.1629 21.9417 62.9261 22.1013 61.4529 23.5729C60.6077 24.4181 60.1955 25.5129 60.1955 26.6048C60.1955 27.4159 60.4245 28.2241 60.8721 28.9245C58.9677 29.3426 57.499 31.0373 57.499 33.1207C57.499 34.1608 57.8654 35.1065 58.4712 35.8422C59.077 36.578 59.9192 37.107 60.8721 37.3153C59.8216 38.9568 59.9798 41.1938 61.4528 42.6669C62.298 43.5106 63.3942 43.9228 64.4847 43.9228C65.2958 43.9228 66.104 43.6953 66.8044 43.2476C67.2225 45.1505 68.9172 46.6207 70.999 46.6207C72.0407 46.6207 72.9834 46.2528 73.7206 45.647C74.4564 45.0427 74.9838 44.199 75.1937 43.2474C76.8353 44.298 79.0737 44.1384 80.5453 42.6668C81.3905 41.8216 81.8027 40.7254 81.8027 39.6334C81.8027 38.8222 81.5752 38.0155 81.1274 37.3152C83.0307 36.8971 84.5008 35.2025 84.5008 33.1207Z" fill="#FF6E7C"/>
<path d="M81.1277 37.3145C81.5755 38.0148 81.803 38.8215 81.803 39.6327C81.803 40.7245 81.3908 41.8209 80.5456 42.6661C79.0739 44.1377 76.8356 44.2973 75.194 43.2467C74.9841 44.1983 74.4567 45.0418 73.7209 45.6463C72.9835 46.2521 72.041 46.62 70.9993 46.62V19.6182C73.0811 19.6182 74.7759 21.0883 75.194 22.9913C75.8943 22.5437 76.7026 22.316 77.5137 22.316C78.6055 22.316 79.7019 22.7282 80.5456 23.5719C82.0187 25.0451 82.1783 27.2819 81.1277 28.9235C82.0793 29.1334 82.9228 29.6608 83.5273 30.3967C84.1331 31.134 84.501 32.078 84.501 33.1197C84.5009 35.2016 83.0307 36.8963 81.1277 37.3145Z" fill="#FF4852"/>
<path d="M76.6064 33.1198C76.6064 36.2153 74.0961 38.7256 70.9993 38.7256C67.9025 38.7256 65.3936 36.2153 65.3936 33.1198C65.3936 30.023 67.9023 27.5127 70.9993 27.5127C74.0963 27.5127 76.6064 30.0229 76.6064 33.1198Z" fill="#FED110"/>
<path d="M76.6064 33.1198C76.6064 36.2153 74.0961 38.7256 70.9993 38.7256V27.5127C74.0961 27.5126 76.6064 30.0229 76.6064 33.1198Z" fill="#FFBC00"/>
<path d="M73.4725 33.1195C73.4725 34.4846 72.3654 35.5917 70.9996 35.5917C69.6337 35.5917 68.5273 34.4846 68.5273 33.1195C68.5273 31.7536 69.6337 30.6465 70.9996 30.6465C72.3655 30.6465 73.4725 31.7536 73.4725 33.1195Z" fill="#FFBC00"/>
<path d="M73.4725 33.1195C73.4725 34.4846 72.3654 35.5917 70.9996 35.5917V30.6465C72.3655 30.6465 73.4725 31.7536 73.4725 33.1195Z" fill="#FFA300"/>
<path d="M71.2733 64.3348V67.3658C71.2733 68.4623 70.8202 69.3496 70.2617 69.3496H58.244C57.6855 69.3496 57.2324 68.4623 57.2324 67.3658V64.3348C57.2324 63.2383 57.6855 62.3496 58.244 62.3496H70.2617C70.8201 62.3496 71.2733 63.2383 71.2733 64.3348Z" fill="#DD584A"/>
<path d="M73.3933 64.3348V67.3658C73.3933 68.4623 72.5046 69.3496 71.4095 69.3496H71.0294H65.627C64.5319 69.3496 63.6432 68.4623 63.6432 67.3658V64.3348C63.6432 63.2383 64.5319 62.3496 65.627 62.3496H71.0781H71.4094C72.5046 62.3496 73.3933 63.2383 73.3933 64.3348Z" fill="#DB351D"/>
<path d="M84.767 64.335V67.3664C84.767 68.4624 83.8796 69.3498 82.7837 69.3498H71V62.3501H82.7835C83.8795 62.3501 84.767 63.239 84.767 64.335Z" fill="#A52817"/>
</g>
<path d="M116.9 39.8H117C117.107 39.8 117.2 39.7667 117.28 39.7C117.36 39.62 117.427 39.5267 117.48 39.42C117.533 39.3 117.573 39.18 117.6 39.06C117.627 38.9267 117.64 38.8067 117.64 38.7V28.04C117.64 27.9467 117.62 27.84 117.58 27.72C117.553 27.6 117.513 27.4867 117.46 27.38C117.407 27.2733 117.34 27.1867 117.26 27.12C117.18 27.04 117.093 27 117 27H116.9V26.8H127.14V27H126.98C126.887 27 126.807 27.04 126.74 27.12C126.673 27.1867 126.613 27.28 126.56 27.4C126.52 27.5067 126.487 27.62 126.46 27.74C126.433 27.86 126.42 27.96 126.42 28.04V38.7C126.42 38.8067 126.427 38.92 126.44 39.04C126.467 39.16 126.5 39.28 126.54 39.4C126.593 39.5067 126.653 39.6 126.72 39.68C126.8 39.76 126.887 39.8 126.98 39.8H127.14V40H124.34V39.8H124.52C124.613 39.8 124.693 39.76 124.76 39.68C124.84 39.6 124.9 39.5067 124.94 39.4C124.993 39.2933 125.027 39.18 125.04 39.06C125.067 38.9267 125.08 38.8067 125.08 38.7V27.5H118.98V38.7C118.98 38.8067 118.993 38.9267 119.02 39.06C119.047 39.18 119.08 39.2933 119.12 39.4C119.173 39.5067 119.24 39.6 119.32 39.68C119.4 39.76 119.493 39.8 119.6 39.8H119.7V40H116.9V39.8ZM130.248 39.8H130.348C130.455 39.8 130.548 39.7667 130.628 39.7C130.708 39.62 130.775 39.5267 130.828 39.42C130.895 39.3133 130.942 39.2 130.968 39.08C131.008 38.96 131.028 38.8467 131.028 38.74V28.04C131.028 27.9467 131.008 27.84 130.968 27.72C130.942 27.6 130.895 27.4867 130.828 27.38C130.775 27.2733 130.708 27.1867 130.628 27.12C130.548 27.04 130.455 27 130.348 27H130.248V26.8H137.948V28.66H137.748C137.722 28.3533 137.602 28.0867 137.388 27.86C137.175 27.62 136.842 27.5 136.388 27.5H132.368V32.56H135.688C135.995 32.56 136.248 32.4667 136.448 32.28C136.662 32.0933 136.768 31.8733 136.768 31.62H136.968V34.12H136.768C136.768 33.88 136.668 33.6733 136.468 33.5C136.268 33.3267 136.008 33.24 135.688 33.24H132.368V39.3H136.748C137.002 39.3 137.222 39.24 137.408 39.12C137.595 39 137.748 38.86 137.868 38.7C138.002 38.5267 138.095 38.3467 138.148 38.16C138.215 37.96 138.248 37.7933 138.248 37.66H138.448V40H130.248V39.8ZM141.135 26.8H143.975C145.455 26.8 146.575 27.0867 147.335 27.66C148.109 28.22 148.495 29.02 148.495 30.06C148.495 30.62 148.362 31.12 148.095 31.56C147.829 32 147.475 32.3733 147.035 32.68C146.609 32.9733 146.122 33.2 145.575 33.36C145.042 33.52 144.509 33.6 143.975 33.6H143.215V38.7C143.215 38.8067 143.229 38.9267 143.255 39.06C143.282 39.18 143.322 39.2933 143.375 39.4C143.442 39.5067 143.509 39.6 143.575 39.68C143.655 39.76 143.749 39.8 143.855 39.8H143.955V40H141.135V39.8H141.235C141.329 39.8 141.415 39.76 141.495 39.68C141.575 39.6 141.642 39.5067 141.695 39.4C141.749 39.2933 141.789 39.18 141.815 39.06C141.842 38.9267 141.855 38.8067 141.855 38.7V28.04C141.855 27.8533 141.802 27.64 141.695 27.4C141.589 27.16 141.435 27.0267 141.235 27H141.135V26.8ZM143.215 27.5V32.9H143.815C144.349 32.9 144.822 32.8267 145.235 32.68C145.662 32.5333 146.015 32.34 146.295 32.1C146.575 31.86 146.789 31.5867 146.935 31.28C147.082 30.9733 147.155 30.66 147.155 30.34C147.155 29.9533 147.089 29.5933 146.955 29.26C146.835 28.9133 146.629 28.6133 146.335 28.36C146.055 28.0933 145.682 27.8867 145.215 27.74C144.749 27.58 144.175 27.5 143.495 27.5H143.215ZM151.398 39.8H151.498C151.592 39.8 151.678 39.76 151.758 39.68C151.838 39.6 151.905 39.5067 151.958 39.4C152.025 39.2933 152.072 39.18 152.098 39.06C152.125 38.9267 152.138 38.8067 152.138 38.7V28.06C152.138 27.9667 152.125 27.86 152.098 27.74C152.072 27.62 152.025 27.5067 151.958 27.4C151.905 27.28 151.832 27.1867 151.738 27.12C151.658 27.04 151.565 27 151.458 27H151.358V26.8H154.638C155.878 26.8 156.845 27.0733 157.538 27.62C158.245 28.1667 158.598 28.8933 158.598 29.8C158.598 30.1867 158.532 30.5333 158.398 30.84C158.265 31.1467 158.092 31.42 157.878 31.66C157.678 31.9 157.458 32.1067 157.218 32.28C156.978 32.44 156.752 32.5733 156.538 32.68C157.098 32.7867 157.565 32.9667 157.938 33.22C158.312 33.4733 158.612 33.7667 158.838 34.1C159.078 34.42 159.245 34.7667 159.338 35.14C159.432 35.5133 159.478 35.88 159.478 36.24C159.478 36.9333 159.352 37.52 159.098 38C158.845 38.4667 158.505 38.8533 158.078 39.16C157.665 39.4533 157.185 39.6667 156.638 39.8C156.105 39.9333 155.552 40 154.978 40H151.398V39.8ZM158.118 36.36C158.012 35.3333 157.665 34.54 157.078 33.98C156.492 33.42 155.665 33.14 154.598 33.14H153.478V39.34H154.638C155.718 39.34 156.565 39.1 157.178 38.62C157.805 38.1267 158.118 37.4467 158.118 36.58V36.36ZM157.298 29.98C157.258 29.2067 156.985 28.5933 156.478 28.14C155.985 27.6867 155.318 27.46 154.478 27.46H153.478V32.5H154.518C155.078 32.5 155.532 32.4267 155.878 32.28C156.238 32.1333 156.525 31.9467 156.738 31.72C156.952 31.48 157.098 31.22 157.178 30.94C157.258 30.66 157.298 30.3867 157.298 30.12V29.98ZM162.424 39.8H162.524C162.617 39.8 162.704 39.7667 162.784 39.7C162.864 39.62 162.93 39.5267 162.984 39.42C163.037 39.3133 163.077 39.2 163.104 39.08C163.144 38.96 163.164 38.8533 163.164 38.76V28.1C163.164 28.0067 163.15 27.8933 163.124 27.76C163.097 27.6267 163.05 27.5067 162.984 27.4C162.93 27.2933 162.864 27.2 162.784 27.12C162.704 27.04 162.617 27 162.524 27H162.424V26.8H165.244V27H165.104C164.917 27.0267 164.77 27.1733 164.664 27.44C164.557 27.6933 164.504 27.9133 164.504 28.1V32.4H165.624C166.237 32.4 166.837 32.4667 167.424 32.6C168.024 32.72 168.55 32.9333 169.004 33.24C169.47 33.5333 169.844 33.9267 170.124 34.42C170.404 34.9 170.544 35.5 170.544 36.22C170.544 36.8067 170.424 37.3333 170.184 37.8C169.944 38.2667 169.617 38.6667 169.204 39C168.79 39.32 168.297 39.5667 167.724 39.74C167.164 39.9133 166.557 40 165.904 40H162.424V39.8ZM164.804 39.3C166.35 39.3 167.457 39.0333 168.124 38.5C168.804 37.9667 169.144 37.2333 169.144 36.3C169.144 35.3533 168.804 34.58 168.124 33.98C167.457 33.38 166.47 33.08 165.164 33.08H164.504V39.3H164.804ZM171.884 26.8H174.704V27H174.544C174.45 27.0133 174.364 27.06 174.284 27.14C174.217 27.22 174.157 27.3133 174.104 27.42C174.064 27.5133 174.03 27.62 174.004 27.74C173.977 27.8467 173.964 27.9467 173.964 28.04V38.7C173.964 38.8067 173.977 38.92 174.004 39.04C174.03 39.16 174.07 39.28 174.124 39.4C174.177 39.5067 174.237 39.6 174.304 39.68C174.384 39.7467 174.47 39.7867 174.564 39.8H174.704V40H171.884V39.8H171.984C172.09 39.8 172.184 39.7667 172.264 39.7C172.344 39.62 172.41 39.5267 172.464 39.42C172.517 39.3 172.557 39.18 172.584 39.06C172.61 38.9267 172.624 38.8067 172.624 38.7V28.04C172.624 27.9467 172.61 27.84 172.584 27.72C172.557 27.6 172.517 27.4867 172.464 27.38C172.41 27.2733 172.344 27.1867 172.264 27.12C172.184 27.04 172.09 27 171.984 27H171.884V26.8ZM185.442 24.18C185.442 24.4067 185.389 24.64 185.282 24.88C185.175 25.12 185.022 25.3467 184.822 25.56C184.635 25.7733 184.402 25.9467 184.122 26.08C183.855 26.2133 183.555 26.28 183.222 26.28C182.902 26.28 182.602 26.22 182.322 26.1C182.055 25.9667 181.822 25.8 181.622 25.6C181.422 25.4 181.262 25.1733 181.142 24.92C181.022 24.6667 180.962 24.42 180.962 24.18H181.082C181.095 24.26 181.135 24.3733 181.202 24.52C181.282 24.6667 181.402 24.8133 181.562 24.96C181.722 25.1067 181.935 25.2333 182.202 25.34C182.469 25.4467 182.802 25.5 183.202 25.5C183.615 25.5 183.949 25.4467 184.202 25.34C184.469 25.2333 184.682 25.1067 184.842 24.96C185.002 24.8133 185.115 24.6667 185.182 24.52C185.249 24.3733 185.295 24.26 185.322 24.18H185.442ZM185.782 39.8H185.882C185.989 39.8 186.082 39.7667 186.162 39.7C186.242 39.62 186.309 39.5267 186.362 39.42C186.429 39.3 186.475 39.18 186.502 39.06C186.529 38.9267 186.542 38.8067 186.542 38.7V29.54L179.902 38.52V38.7C179.902 38.8067 179.915 38.9267 179.942 39.06C179.982 39.18 180.029 39.2933 180.082 39.4C180.135 39.5067 180.202 39.6 180.282 39.68C180.362 39.76 180.455 39.8 180.562 39.8H180.662V40H177.822V39.8H177.922C178.029 39.8 178.122 39.7667 178.202 39.7C178.282 39.62 178.349 39.5267 178.402 39.42C178.469 39.3 178.515 39.18 178.542 39.06C178.569 38.9267 178.582 38.8067 178.582 38.7V28.04C178.582 27.9467 178.569 27.84 178.542 27.72C178.515 27.6 178.469 27.4867 178.402 27.38C178.349 27.2733 178.282 27.1867 178.202 27.12C178.122 27.04 178.029 27 177.922 27H177.822V26.8H180.662V27H180.502C180.409 27.0133 180.322 27.06 180.242 27.14C180.175 27.22 180.115 27.3133 180.062 27.42C180.009 27.5133 179.969 27.62 179.942 27.74C179.915 27.8467 179.902 27.9467 179.902 28.04V37.28L186.542 28.3V28.04C186.542 27.9467 186.529 27.84 186.502 27.72C186.475 27.6 186.429 27.4867 186.362 27.38C186.309 27.2733 186.242 27.1867 186.162 27.12C186.082 27.04 185.989 27 185.882 27H185.782V26.8H188.622V27H188.522C188.415 27 188.322 27.04 188.242 27.12C188.162 27.1867 188.095 27.2733 188.042 27.38C187.989 27.4867 187.942 27.6 187.902 27.72C187.875 27.84 187.862 27.9467 187.862 28.04V38.7C187.862 38.8067 187.875 38.92 187.902 39.04C187.942 39.16 187.989 39.28 188.042 39.4C188.095 39.5067 188.162 39.6 188.242 39.68C188.322 39.76 188.415 39.8 188.522 39.8H188.622V40H185.782V39.8ZM116.88 61.8H116.98C117.1 61.8 117.2 61.76 117.28 61.68C117.36 61.6 117.42 61.5067 117.46 61.4C117.513 61.2933 117.547 61.18 117.56 61.06C117.587 60.9267 117.6 60.8067 117.6 60.7V50.1C117.6 50.0067 117.587 49.8933 117.56 49.76C117.547 49.6267 117.513 49.5067 117.46 49.4C117.42 49.2933 117.36 49.2 117.28 49.12C117.2 49.04 117.1 49 116.98 49H116.88V48.8H119.7V49H119.5C119.393 49.0133 119.3 49.06 119.22 49.14C119.153 49.22 119.1 49.3133 119.06 49.42C119.02 49.5267 118.987 49.6467 118.96 49.78C118.947 49.9 118.94 50.0067 118.94 50.1V61.3H124.96V50.1C124.96 50.0067 124.947 49.9 124.92 49.78C124.907 49.6467 124.873 49.5267 124.82 49.42C124.78 49.3133 124.72 49.22 124.64 49.14C124.56 49.06 124.467 49.0133 124.36 49H124.24V48.8H127.02V49H126.84C126.733 49.0133 126.647 49.06 126.58 49.14C126.513 49.22 126.46 49.3133 126.42 49.42C126.38 49.5267 126.347 49.6467 126.32 49.78C126.307 49.9 126.3 50.0067 126.3 50.1V60.22C126.3 60.4867 126.367 60.7333 126.5 60.96C126.647 61.1867 126.88 61.3 127.2 61.3H128.2V63.8H128C127.987 63.6267 127.94 63.4333 127.86 63.22C127.793 63.02 127.687 62.8267 127.54 62.64C127.407 62.4667 127.233 62.3133 127.02 62.18C126.82 62.06 126.58 62 126.3 62H116.88V61.8ZM130.6 61.8H130.7C130.793 61.8 130.88 61.76 130.96 61.68C131.04 61.6 131.107 61.5067 131.16 61.4C131.227 61.2933 131.273 61.18 131.3 61.06C131.327 60.9267 131.34 60.8067 131.34 60.7V50.06C131.34 49.9667 131.327 49.86 131.3 49.74C131.273 49.62 131.227 49.5067 131.16 49.4C131.107 49.28 131.033 49.1867 130.94 49.12C130.86 49.04 130.767 49 130.66 49H130.56V48.8H133.84C135.08 48.8 136.047 49.0733 136.74 49.62C137.447 50.1667 137.8 50.8933 137.8 51.8C137.8 52.1867 137.733 52.5333 137.6 52.84C137.467 53.1467 137.293 53.42 137.08 53.66C136.88 53.9 136.66 54.1067 136.42 54.28C136.18 54.44 135.953 54.5733 135.74 54.68C136.3 54.7867 136.767 54.9667 137.14 55.22C137.513 55.4733 137.813 55.7667 138.04 56.1C138.28 56.42 138.447 56.7667 138.54 57.14C138.633 57.5133 138.68 57.88 138.68 58.24C138.68 58.9333 138.553 59.52 138.3 60C138.047 60.4667 137.707 60.8533 137.28 61.16C136.867 61.4533 136.387 61.6667 135.84 61.8C135.307 61.9333 134.753 62 134.18 62H130.6V61.8ZM137.32 58.36C137.213 57.3333 136.867 56.54 136.28 55.98C135.693 55.42 134.867 55.14 133.8 55.14H132.68V61.34H133.84C134.92 61.34 135.767 61.1 136.38 60.62C137.007 60.1267 137.32 59.4467 137.32 58.58V58.36ZM136.5 51.98C136.46 51.2067 136.187 50.5933 135.68 50.14C135.187 49.6867 134.52 49.46 133.68 49.46H132.68V54.5H133.72C134.28 54.5 134.733 54.4267 135.08 54.28C135.44 54.1333 135.727 53.9467 135.94 53.72C136.153 53.48 136.3 53.22 136.38 52.94C136.46 52.66 136.5 52.3867 136.5 52.12V51.98ZM141.585 61.8H141.685C141.792 61.8 141.885 61.7667 141.965 61.7C142.045 61.62 142.112 61.5267 142.165 61.42C142.232 61.3133 142.278 61.2 142.305 61.08C142.345 60.96 142.365 60.8467 142.365 60.74V50.04C142.365 49.9467 142.345 49.84 142.305 49.72C142.278 49.6 142.232 49.4867 142.165 49.38C142.112 49.2733 142.045 49.1867 141.965 49.12C141.885 49.04 141.792 49 141.685 49H141.585V48.8H149.285V50.66H149.085C149.058 50.3533 148.938 50.0867 148.725 49.86C148.512 49.62 148.178 49.5 147.725 49.5H143.705V54.56H147.025C147.332 54.56 147.585 54.4667 147.785 54.28C147.998 54.0933 148.105 53.8733 148.105 53.62H148.305V56.12H148.105C148.105 55.88 148.005 55.6733 147.805 55.5C147.605 55.3267 147.345 55.24 147.025 55.24H143.705V61.3H148.085C148.338 61.3 148.558 61.24 148.745 61.12C148.932 61 149.085 60.86 149.205 60.7C149.338 60.5267 149.432 60.3467 149.485 60.16C149.552 59.96 149.585 59.7933 149.585 59.66H149.785V62H141.585V61.8ZM157.552 61.8H157.652V62H154.812V61.8H154.912C155.019 61.8 155.112 61.76 155.192 61.68C155.272 61.6 155.339 61.5067 155.392 61.4C155.459 61.2933 155.506 61.18 155.532 61.06C155.559 60.9267 155.572 60.8067 155.572 60.7V49.54H153.252C153.039 49.54 152.852 49.5867 152.692 49.68C152.532 49.7733 152.399 49.8933 152.292 50.04C152.186 50.1733 152.106 50.3267 152.052 50.5C151.999 50.66 151.972 50.82 151.972 50.98H151.772V48.8H160.752V50.98H160.552C160.552 50.82 160.526 50.66 160.472 50.5C160.419 50.3267 160.339 50.1733 160.232 50.04C160.126 49.8933 159.992 49.7733 159.832 49.68C159.672 49.5867 159.486 49.54 159.272 49.54H156.912V60.7C156.912 60.8067 156.926 60.9267 156.952 61.06C156.979 61.18 157.019 61.2933 157.072 61.4C157.139 61.5067 157.206 61.6 157.272 61.68C157.352 61.76 157.446 61.8 157.552 61.8ZM168.733 48.6C169.773 48.6 170.706 48.7867 171.533 49.16C172.36 49.52 173.06 50.0133 173.633 50.64C174.22 51.2533 174.666 51.9733 174.973 52.8C175.293 53.6133 175.453 54.4667 175.453 55.36C175.453 56.36 175.266 57.28 174.893 58.12C174.533 58.96 174.033 59.68 173.393 60.28C172.753 60.88 172.006 61.3533 171.153 61.7C170.313 62.0333 169.413 62.2 168.453 62.2C167.426 62.2 166.5 62.0133 165.673 61.64C164.86 61.2667 164.166 60.7733 163.593 60.16C163.033 59.5467 162.6 58.84 162.293 58.04C161.986 57.24 161.833 56.4067 161.833 55.54C161.833 54.6867 161.986 53.8467 162.293 53.02C162.6 52.18 163.046 51.4333 163.633 50.78C164.233 50.1267 164.96 49.6 165.813 49.2C166.666 48.8 167.64 48.6 168.733 48.6ZM168.713 61.5C169.606 61.46 170.386 61.26 171.053 60.9C171.733 60.5267 172.3 60.06 172.753 59.5C173.206 58.9267 173.54 58.3 173.753 57.62C173.98 56.94 174.093 56.2667 174.093 55.6C174.093 54.8667 173.96 54.1267 173.693 53.38C173.426 52.6333 173.046 51.96 172.553 51.36C172.06 50.7467 171.466 50.2533 170.773 49.88C170.093 49.4933 169.326 49.3 168.473 49.3C167.646 49.3 166.906 49.4867 166.253 49.86C165.6 50.22 165.04 50.6867 164.573 51.26C164.12 51.8333 163.773 52.4733 163.533 53.18C163.293 53.8867 163.173 54.58 163.173 55.26C163.173 55.9933 163.313 56.7333 163.593 57.48C163.873 58.2133 164.26 58.88 164.753 59.48C165.246 60.08 165.826 60.5667 166.493 60.94C167.173 61.3133 167.913 61.5 168.713 61.5ZM183.32 61.8H183.42C183.513 61.8 183.6 61.7667 183.68 61.7C183.76 61.62 183.827 61.5267 183.88 61.42C183.947 61.3133 183.993 61.2 184.02 61.08C184.047 60.96 184.06 60.8467 184.06 60.74V55.42C183.793 55.62 183.433 55.8133 182.98 56C182.527 56.1867 182.047 56.28 181.54 56.28C180.94 56.28 180.393 56.18 179.9 55.98C179.42 55.7667 179.007 55.48 178.66 55.12C178.327 54.76 178.067 54.3467 177.88 53.88C177.707 53.4 177.62 52.8933 177.62 52.36V50.04C177.62 49.9467 177.607 49.84 177.58 49.72C177.553 49.6 177.513 49.4867 177.46 49.38C177.42 49.2733 177.36 49.1867 177.28 49.12C177.213 49.04 177.14 49 177.06 49H176.96V48.8H179.74V49H179.64C179.533 49 179.44 49.04 179.36 49.12C179.28 49.1867 179.207 49.2733 179.14 49.38C179.087 49.4867 179.04 49.6 179 49.72C178.973 49.84 178.96 49.9467 178.96 50.04V52.48C178.96 52.92 179.047 53.32 179.22 53.68C179.393 54.04 179.62 54.3533 179.9 54.62C180.18 54.8733 180.493 55.0733 180.84 55.22C181.2 55.3533 181.56 55.42 181.92 55.42C182.28 55.42 182.647 55.3333 183.02 55.16C183.393 54.9867 183.74 54.7867 184.06 54.56V50.04C184.06 49.9467 184.047 49.8467 184.02 49.74C183.993 49.62 183.953 49.5133 183.9 49.42C183.86 49.3133 183.807 49.22 183.74 49.14C183.673 49.06 183.593 49.0133 183.5 49H183.34V48.8H186.18V49H186.02C185.927 49.0133 185.84 49.06 185.76 49.14C185.68 49.22 185.613 49.3133 185.56 49.42C185.507 49.5133 185.467 49.62 185.44 49.74C185.413 49.8467 185.4 49.9467 185.4 50.04V60.74C185.4 60.8333 185.413 60.94 185.44 61.06C185.467 61.18 185.507 61.2933 185.56 61.4C185.613 61.4933 185.68 61.58 185.76 61.66C185.84 61.74 185.927 61.7867 186.02 61.8H186.18V62H183.32V61.8ZM197.236 61.8H197.336C197.43 61.8 197.516 61.7667 197.596 61.7C197.676 61.62 197.743 61.5267 197.796 61.42C197.863 61.3 197.91 61.18 197.936 61.06C197.963 60.9267 197.976 60.8067 197.976 60.7V55.26H191.576V60.7C191.576 60.8067 191.59 60.9267 191.616 61.06C191.643 61.18 191.683 61.2933 191.736 61.4C191.79 61.5067 191.85 61.6 191.916 61.68C191.996 61.76 192.09 61.8 192.196 61.8H192.296V62H189.496V61.8H189.596C189.69 61.8 189.776 61.7667 189.856 61.7C189.936 61.62 190.003 61.5267 190.056 61.42C190.123 61.3 190.17 61.18 190.196 61.06C190.223 60.9267 190.236 60.8067 190.236 60.7V50.04C190.236 49.9467 190.223 49.84 190.196 49.72C190.17 49.6 190.13 49.4867 190.076 49.38C190.023 49.2733 189.956 49.1867 189.876 49.12C189.796 49.04 189.703 49 189.596 49H189.496V48.8H192.296V49H192.196C192.09 49 191.996 49.04 191.916 49.12C191.836 49.1867 191.77 49.2733 191.716 49.38C191.676 49.4867 191.643 49.6 191.616 49.72C191.59 49.84 191.576 49.9467 191.576 50.04V54.56H197.976V50.04C197.976 49.9467 197.963 49.84 197.936 49.72C197.91 49.6 197.87 49.4867 197.816 49.38C197.763 49.2733 197.696 49.1867 197.616 49.12C197.536 49.04 197.443 49 197.336 49H197.236V48.8H200.036V49H199.936C199.83 49 199.736 49.04 199.656 49.12C199.576 49.1867 199.51 49.2733 199.456 49.38C199.416 49.4867 199.383 49.6 199.356 49.72C199.33 49.84 199.316 49.9467 199.316 50.04V60.7C199.316 60.8067 199.33 60.9267 199.356 61.06C199.396 61.18 199.443 61.2933 199.496 61.4C199.55 61.5067 199.61 61.6 199.676 61.68C199.756 61.76 199.843 61.8 199.936 61.8H200.036V62H197.236V61.8ZM202.938 61.8H203.038C203.131 61.8 203.218 61.7667 203.298 61.7C203.378 61.62 203.444 61.5267 203.498 61.42C203.551 61.3133 203.591 61.2 203.618 61.08C203.658 60.96 203.678 60.8533 203.678 60.76V50.1C203.678 50.0067 203.664 49.8933 203.638 49.76C203.611 49.6267 203.564 49.5067 203.498 49.4C203.444 49.2933 203.378 49.2 203.298 49.12C203.218 49.04 203.131 49 203.038 49H202.938V48.8H205.758V49H205.618C205.431 49.0267 205.284 49.1733 205.178 49.44C205.071 49.6933 205.018 49.9133 205.018 50.1V54.4H206.138C206.751 54.4 207.351 54.4667 207.938 54.6C208.538 54.72 209.064 54.9333 209.518 55.24C209.984 55.5333 210.358 55.9267 210.638 56.42C210.918 56.9 211.058 57.5 211.058 58.22C211.058 58.8067 210.938 59.3333 210.698 59.8C210.458 60.2667 210.131 60.6667 209.718 61C209.304 61.32 208.811 61.5667 208.238 61.74C207.678 61.9133 207.071 62 206.418 62H202.938V61.8ZM205.318 61.3C206.864 61.3 207.971 61.0333 208.638 60.5C209.318 59.9667 209.658 59.2333 209.658 58.3C209.658 57.3533 209.318 56.58 208.638 55.98C207.971 55.38 206.984 55.08 205.678 55.08H205.018V61.3H205.318ZM212.398 48.8H215.218V49H215.058C214.964 49.0133 214.878 49.06 214.798 49.14C214.731 49.22 214.671 49.3133 214.618 49.42C214.578 49.5133 214.544 49.62 214.518 49.74C214.491 49.8467 214.478 49.9467 214.478 50.04V60.7C214.478 60.8067 214.491 60.92 214.518 61.04C214.544 61.16 214.584 61.28 214.638 61.4C214.691 61.5067 214.751 61.6 214.818 61.68C214.898 61.7467 214.984 61.7867 215.078 61.8H215.218V62H212.398V61.8H212.498C212.604 61.8 212.698 61.7667 212.778 61.7C212.858 61.62 212.924 61.5267 212.978 61.42C213.031 61.3 213.071 61.18 213.098 61.06C213.124 60.9267 213.138 60.8067 213.138 60.7V50.04C213.138 49.9467 213.124 49.84 213.098 49.72C213.071 49.6 213.031 49.4867 212.978 49.38C212.924 49.2733 212.858 49.1867 212.778 49.12C212.698 49.04 212.604 49 212.498 49H212.398V48.8ZM225.956 46.18C225.956 46.4067 225.903 46.64 225.796 46.88C225.689 47.12 225.536 47.3467 225.336 47.56C225.149 47.7733 224.916 47.9467 224.636 48.08C224.369 48.2133 224.069 48.28 223.736 48.28C223.416 48.28 223.116 48.22 222.836 48.1C222.569 47.9667 222.336 47.8 222.136 47.6C221.936 47.4 221.776 47.1733 221.656 46.92C221.536 46.6667 221.476 46.42 221.476 46.18H221.596C221.609 46.26 221.649 46.3733 221.716 46.52C221.796 46.6667 221.916 46.8133 222.076 46.96C222.236 47.1067 222.449 47.2333 222.716 47.34C222.983 47.4467 223.316 47.5 223.716 47.5C224.129 47.5 224.463 47.4467 224.716 47.34C224.983 47.2333 225.196 47.1067 225.356 46.96C225.516 46.8133 225.629 46.6667 225.696 46.52C225.763 46.3733 225.809 46.26 225.836 46.18H225.956ZM226.296 61.8H226.396C226.503 61.8 226.596 61.7667 226.676 61.7C226.756 61.62 226.823 61.5267 226.876 61.42C226.943 61.3 226.989 61.18 227.016 61.06C227.043 60.9267 227.056 60.8067 227.056 60.7V51.54L220.416 60.52V60.7C220.416 60.8067 220.429 60.9267 220.456 61.06C220.496 61.18 220.543 61.2933 220.596 61.4C220.649 61.5067 220.716 61.6 220.796 61.68C220.876 61.76 220.969 61.8 221.076 61.8H221.176V62H218.336V61.8H218.436C218.543 61.8 218.636 61.7667 218.716 61.7C218.796 61.62 218.863 61.5267 218.916 61.42C218.983 61.3 219.029 61.18 219.056 61.06C219.083 60.9267 219.096 60.8067 219.096 60.7V50.04C219.096 49.9467 219.083 49.84 219.056 49.72C219.029 49.6 218.983 49.4867 218.916 49.38C218.863 49.2733 218.796 49.1867 218.716 49.12C218.636 49.04 218.543 49 218.436 49H218.336V48.8H221.176V49H221.016C220.923 49.0133 220.836 49.06 220.756 49.14C220.689 49.22 220.629 49.3133 220.576 49.42C220.523 49.5133 220.483 49.62 220.456 49.74C220.429 49.8467 220.416 49.9467 220.416 50.04V59.28L227.056 50.3V50.04C227.056 49.9467 227.043 49.84 227.016 49.72C226.989 49.6 226.943 49.4867 226.876 49.38C226.823 49.2733 226.756 49.1867 226.676 49.12C226.596 49.04 226.503 49 226.396 49H226.296V48.8H229.136V49H229.036C228.929 49 228.836 49.04 228.756 49.12C228.676 49.1867 228.609 49.2733 228.556 49.38C228.503 49.4867 228.456 49.6 228.416 49.72C228.389 49.84 228.376 49.9467 228.376 50.04V60.7C228.376 60.8067 228.389 60.92 228.416 61.04C228.456 61.16 228.503 61.28 228.556 61.4C228.609 61.5067 228.676 61.6 228.756 61.68C228.836 61.76 228.929 61.8 229.036 61.8H229.136V62H226.296V61.8Z" fill="#FED110"/>
<defs>
<clipPath id="clip0_29_2">
<rect width="70" height="70" fill="white" transform="translate(36 10)"/>
</clipPath>
</defs>
</svg>
