<svg width="370" height="122" viewBox="0 0 370 122" fill="none" xmlns="http://www.w3.org/2000/svg">
<path d="M0 0H370V122H0V0Z" fill="#D1BA5D"/>
<g clip-path="url(#clip0_28_0)">
<path d="M111.464 73.2556C111.464 78.7219 105.513 92.6049 100.767 102.809C98.486 107.713 91.5142 107.713 89.2329 102.809C84.4868 92.6049 78.5365 78.7219 78.5365 73.2556C78.5365 64.1629 85.9076 56.792 95.0001 56.792C104.093 56.792 111.464 64.1629 111.464 73.2556Z" fill="#E4187A"/>
<path d="M96.7305 56.8835C96.1617 56.8242 95.5846 56.7925 94.9999 56.7925C85.9071 56.7925 78.5363 64.1636 78.5363 73.2561C78.5363 78.7224 84.4865 92.6054 89.2327 102.809C91.2946 107.243 97.1885 107.667 99.9871 104.086C93.3708 87.5948 94.5536 69.3466 96.7305 56.8835Z" fill="#C61469"/>
<path d="M103.348 43.5617C117.638 39.0915 132.556 43.8976 141.823 48.1914C145.327 49.8148 145.418 54.7483 141.981 56.5087C137.097 59.0105 129.881 63.4284 119.511 71.2244C109.145 79.0164 96.709 73.2282 93.5727 64.6936C90.4364 56.1591 94.6696 46.2763 103.348 43.5617Z" fill="#E4187A"/>
<path d="M93.5704 64.6936C92.2468 61.0915 92.2402 57.251 93.3221 53.8089C100.497 51.6376 122.874 46.0655 144.427 53.235C144.185 54.5598 143.372 55.7951 141.979 56.5089C137.094 59.0107 129.879 63.4286 119.508 71.2246C109.143 79.0166 96.7067 73.2283 93.5704 64.6936Z" fill="#C61469"/>
<path d="M86.6525 43.5617C72.3616 39.0915 57.4441 43.8976 48.1767 48.1914C44.673 49.8148 44.5822 54.7483 48.0191 56.5087C52.9033 59.0105 60.1186 63.4284 70.4893 71.2244C80.8547 79.0164 93.2911 73.2282 96.4274 64.6936C99.5635 56.1591 95.3305 46.2763 86.6525 43.5617Z" fill="#C61469"/>
<path d="M96.4295 64.6936C97.7531 61.0915 97.7597 57.251 96.6777 53.8089C89.5027 51.6376 67.1259 46.0655 45.5732 53.235C45.8147 54.5598 46.6279 55.7951 48.0212 56.5089C52.9055 59.0107 60.1208 63.4286 70.4915 71.2246C80.857 79.0166 93.2934 73.2283 96.4295 64.6936Z" fill="#A71159"/>
<path d="M111.464 48.7447C111.464 43.2784 105.513 29.3954 100.767 19.1915C98.486 14.2871 91.5142 14.2871 89.2329 19.1915C84.4868 29.3954 78.5365 43.2784 78.5365 48.7447C78.5365 57.8374 85.9076 65.2083 95.0001 65.2083C104.093 65.2083 111.464 57.8372 111.464 48.7447Z" fill="#F072AE"/>
<path d="M97.4581 15.998C94.5164 14.7875 90.7867 15.8502 89.2328 19.1911C84.4866 29.395 78.5361 43.278 78.5361 48.7443C78.5361 57.837 85.9072 65.2081 94.9999 65.2081C95.9319 65.2081 96.8443 65.1266 97.734 64.9778C92.8932 44.795 97.4418 16.1006 97.4581 15.998Z" fill="#ED539D"/>
<path d="M103.232 56.9762C103.232 54.5619 100.91 45.7489 98.7332 38.0138C97.6718 34.2428 92.3282 34.2428 91.2667 38.0138C89.0895 45.7489 86.7682 54.5619 86.7682 56.9762C86.7682 61.5226 90.4537 65.2081 95.0001 65.2081C99.5465 65.2081 103.232 61.5226 103.232 56.9762Z" fill="#FFDE55"/>
<path d="M94.9999 65.2082C95.9392 65.2082 96.8409 65.0486 97.6818 64.7589C95.4959 55.4889 95.2686 44.463 95.6629 35.2419C93.863 34.9443 91.871 35.8669 91.2667 38.0139C89.0895 45.7489 86.7682 54.5619 86.7682 56.9763C86.7682 61.5226 90.4535 65.2082 94.9999 65.2082Z" fill="#FFCD00"/>
<path d="M91.9611 26.6418C86.2104 37.9945 79.8058 54.8754 79.7639 54.9856C78.9746 53.0606 78.5361 50.9542 78.5361 48.7447C78.5361 43.2783 84.4866 29.3954 89.2328 19.1915C91.514 14.2871 98.4859 14.2871 100.767 19.1915C105.513 29.3954 111.464 43.2783 111.464 48.7447C111.464 50.9542 111.025 53.0606 110.236 54.9856C110.194 54.8754 103.789 37.9945 98.0388 26.6418C96.7784 24.1536 93.2217 24.1536 91.9611 26.6418Z" fill="#ED539D"/>
<path d="M79.764 54.9836C79.8059 54.8734 86.2105 37.9922 91.9612 26.6398C92.8362 24.9125 94.8172 24.3854 96.3689 25.0562C96.8893 19.5854 97.4524 16.0322 97.4582 15.9965C94.5166 14.7861 90.7868 15.8487 89.2329 19.1896C84.4867 29.3936 78.5363 43.2765 78.5363 48.7428C78.5363 50.9522 78.9745 53.0583 79.764 54.9836Z" fill="#E4187A"/>
<path d="M116.747 54.7162C129.69 62.2463 136.209 76.4984 139.294 86.2352C140.46 89.9163 136.881 93.3126 133.262 91.9641C128.12 90.0478 119.991 87.7042 107.239 85.3116C94.4939 82.9202 90.3735 69.8363 94.5555 61.7626C98.7375 53.6889 108.888 50.1438 116.747 54.7162Z" fill="#F490C0"/>
<path d="M133.263 91.9645C128.12 90.0483 119.991 87.7047 107.239 85.312C94.4941 82.9206 90.3737 69.8368 94.5557 61.763C94.6822 61.5186 94.8146 61.2786 94.9519 61.0425C102.106 63.1994 124.334 71.2684 137.6 91.3796C136.426 92.2353 134.848 92.5552 133.263 91.9645Z" fill="#F072AE"/>
<path d="M107.787 55.6054C116.515 59.0916 121.873 67.3416 124.682 73.1034C125.745 75.2818 123.834 77.7195 121.464 77.2147C118.095 76.4973 112.832 75.7892 104.695 75.4753C96.5624 75.1615 92.8017 67.4165 94.6564 62.0195C96.5114 56.6222 102.488 53.4885 107.787 55.6054Z" fill="#FFE477"/>
<path d="M121.464 77.2148C118.095 76.4974 112.832 75.7892 104.695 75.4754C96.5624 75.1617 92.8017 67.4167 94.6564 62.0196C94.7684 61.6939 94.8961 61.3769 95.0369 61.0684C100.124 62.6099 112.536 67.0553 124.053 76.4994C123.404 77.108 122.477 77.4304 121.464 77.2148Z" fill="#FFDE55"/>
<path d="M134.403 86.9885C134.491 86.7084 134.133 75.0458 128.648 65.2954C134.052 72.1973 137.353 80.1099 139.294 86.2355C140.46 89.9166 136.881 93.3129 133.262 91.9646C128.12 90.0483 119.991 87.7047 107.239 85.3121C105.85 85.0515 104.564 84.6636 103.379 84.1694C109.028 83.4819 121.183 82.5826 134.403 86.9885Z" fill="#F072AE"/>
<path d="M73.2528 54.7162C60.3102 62.2463 53.7906 76.4984 50.7057 86.2352C49.5394 89.9163 53.119 93.3126 56.7374 91.9641C61.8796 90.0478 70.0089 87.7042 82.7607 85.3116C95.5059 82.9202 99.6263 69.8363 95.4443 61.7626C91.2623 53.6889 81.1122 50.1438 73.2528 54.7162Z" fill="#F7AFD1"/>
<path d="M56.7374 91.9645C61.8796 90.0483 70.0089 87.7047 82.7607 85.312C95.5059 82.9206 99.6263 69.8368 95.4443 61.763C95.3178 61.5186 95.1854 61.2786 95.0481 61.0425C87.8944 63.1994 65.6656 71.2684 52.4 91.3796C53.5744 92.2353 55.152 92.5552 56.7374 91.9645Z" fill="#F490C0"/>
<path d="M82.2125 55.6054C73.4847 59.0916 68.1272 67.3416 65.3174 73.1034C64.2549 75.2818 66.1654 77.7195 68.5359 77.2147C71.9047 76.4973 77.1675 75.7892 85.3046 75.4753C93.4375 75.1615 97.1981 67.4165 95.3432 62.0195C93.4885 56.6222 87.5123 53.4885 82.2125 55.6054Z" fill="#FFEB99"/>
<path d="M68.536 77.2148C71.9048 76.4974 77.1675 75.7892 85.3046 75.4754C93.4375 75.1617 97.1981 67.4167 95.3434 62.0196C95.2314 61.6939 95.1037 61.3769 94.9629 61.0684C89.8762 62.6099 77.4637 67.0553 65.9465 76.4994C66.5954 77.108 67.5231 77.4304 68.536 77.2148Z" fill="#FFE477"/>
<path d="M55.5967 86.9885C55.5092 86.7084 55.8664 75.0458 61.3513 65.2954C55.9473 72.1973 52.6464 80.1099 50.7057 86.2355C49.5394 89.9166 53.119 93.3129 56.7374 91.9646C61.8796 90.0483 70.0089 87.7047 82.7607 85.3121C84.1496 85.0515 85.4362 84.6636 86.6207 84.1694C80.9717 83.4819 68.817 82.5826 55.5967 86.9885Z" fill="#F490C0"/>
<path d="M56.7374 91.9646C61.8796 90.0483 70.0089 87.7047 82.7607 85.3121C84.1497 85.0515 85.4362 84.6636 86.6208 84.1694C80.9717 83.4821 68.8172 82.5828 55.5969 86.9885C55.5957 86.9847 55.5947 86.978 55.5937 86.9698C54.4838 88.3711 53.4156 89.8399 52.4 91.3795C53.5744 92.2351 55.152 92.5553 56.7374 91.9646Z" fill="#F072AE"/>
<path d="M133.263 91.9646C128.12 90.0483 119.991 87.7047 107.239 85.3121C105.85 85.0515 104.564 84.6636 103.379 84.1694C109.028 83.4821 121.183 82.5828 134.403 86.9885C134.404 86.9847 134.405 86.978 134.406 86.9698C135.516 88.3711 136.584 89.8399 137.6 91.3795C136.426 92.2351 134.848 92.5553 133.263 91.9646Z" fill="#ED539D"/>
<path d="M95.1903 62.1876C94.1237 62.1423 93.2637 61.2996 93.1986 60.2342C93.1904 60.1067 92.2626 47.1255 83.4297 39.7709C82.5452 39.0344 82.4252 37.72 83.1617 36.8356C83.8984 35.9511 85.2125 35.831 86.0972 36.5675C91.4157 40.9963 94.2375 46.9778 95.7268 51.7892C97.3351 48.4578 99.8925 45.0564 103.875 43.7025C104.964 43.3321 106.148 43.9151 106.519 45.0048C106.89 46.0943 106.306 47.2785 105.217 47.6488C102.076 48.7166 100.123 52.0061 99.0376 54.5776C97.7662 57.5902 97.3449 60.3797 97.3415 60.4075C97.1118 62.2918 95.2204 62.189 95.1903 62.1876Z" fill="#FFF5CC"/>
<path d="M142.452 46.8359C134.745 43.2651 123.169 39.3383 111.176 40.4836C110.489 38.3729 109.601 35.9528 108.507 33.206C108.202 32.4394 107.333 32.066 106.566 32.3708C105.8 32.6762 105.426 33.5454 105.731 34.3118C109.235 43.1069 109.97 47.0152 109.97 48.7446C109.97 49.1787 109.951 49.6118 109.914 50.0427C109.41 48.7717 108.803 47.257 108.124 45.5926C108.004 44.2357 107.496 43.5914 107.148 43.2231C104.253 36.2444 101.637 30.4382 99.3718 25.9666C98.5329 24.3105 96.8577 23.2815 95.0002 23.2815C93.1426 23.2815 91.4674 24.3103 90.6285 25.9668C89.3364 28.5176 87.911 31.5455 86.3838 34.9818C85.6795 34.624 84.8888 34.5164 84.136 34.6501C85.8096 30.4223 87.9717 25.4458 90.5877 19.8217C91.4072 18.0594 93.0568 17.0073 95 17.0073C96.9431 17.0073 98.5929 18.0594 99.4124 19.8217C100.874 22.9628 102.219 25.9596 103.411 28.7293C103.737 29.4872 104.616 29.837 105.374 29.5109C106.132 29.1845 106.482 28.3056 106.156 27.5478C104.952 24.7517 103.595 21.7284 102.122 18.5616C100.819 15.7594 98.0896 14.019 95 14.019C91.9103 14.019 89.1812 15.7596 87.8781 18.5614C83.5941 27.7717 80.5692 35.0983 78.823 40.4836C66.8303 39.3379 55.2549 43.2655 47.5485 46.8361C45.4071 47.8282 44.0478 49.9086 44.0012 52.265C43.9546 54.6251 45.2332 56.7609 47.3379 57.8391C50.8488 59.6373 54.9477 62.1175 59.5341 65.2168C54.3379 72.1402 51.1502 79.8862 49.2813 85.7841C48.5685 88.034 49.1865 90.441 50.894 92.0654C52.058 93.1729 53.5595 93.757 55.0985 93.757C55.8207 93.757 56.5514 93.6283 57.2592 93.3645C63.1017 91.1871 71.0362 89.1144 80.8658 87.1959C82.6349 91.7742 84.9908 97.2318 87.8781 103.439C89.1814 106.241 91.9103 107.982 95 107.982C95 107.982 95 107.982 95.0002 107.982C98.0896 107.982 100.819 106.241 102.122 103.439C103.986 99.4329 105.649 95.6894 107.066 92.3129C107.386 91.552 107.028 90.6761 106.267 90.3569C105.506 90.0374 104.63 90.3954 104.311 91.1562C102.908 94.4981 101.26 98.2067 99.4124 102.179C98.5929 103.941 96.9431 104.993 95 104.993C93.0568 104.993 91.4072 103.941 90.5877 102.179C87.8307 96.2514 85.5678 91.0253 83.8451 86.611C88.5244 85.5496 92.3818 83.043 95.0027 79.3985C97.7812 83.2488 101.949 85.8395 106.964 86.7804C117.801 88.8138 126.474 91.0289 132.741 93.3645C133.449 93.6281 134.179 93.757 134.902 93.757C136.441 93.757 137.942 93.1725 139.106 92.0652C140.814 90.441 141.432 88.034 140.719 85.7841C138.727 79.4959 136.123 73.7975 132.979 68.8475C132.175 67.5811 131.338 66.3698 130.47 65.2144C135.055 62.1161 139.152 59.6367 142.662 57.8387C144.767 56.7607 146.045 54.6249 145.999 52.2648C145.952 49.9084 144.593 47.8282 142.452 46.8359ZM92.4292 70.3899C90.7544 72.5924 88.2038 73.8682 85.2472 73.9824C78.1931 74.2545 72.466 74.8504 68.225 75.7534C67.6815 75.8696 67.155 75.6781 66.8147 75.2428C66.4761 74.8095 66.4183 74.2547 66.6603 73.7585C71.8322 63.1531 78.2668 58.7701 82.7667 56.993C87.8498 54.9857 91.4126 58.731 91.5274 58.8495C91.664 59.7578 91.7059 60.302 91.7075 60.326C91.7999 61.8348 92.8117 63.0764 94.1901 63.5136C94.6041 65.7937 93.9467 68.3939 92.4292 70.3899ZM85.6608 44.25C86.2855 45.0601 86.8469 45.8984 87.351 46.7484C86.8254 48.7904 86.3977 50.5545 86.0714 52.0241C84.9986 51.6823 83.9027 51.4424 82.7978 51.3131C83.5698 49.362 84.5486 46.9285 85.6608 44.25ZM88.8756 53.1868C89.022 52.5078 89.1939 51.754 89.3908 50.9274C89.8334 52.0405 90.1936 53.122 90.4863 54.1321C89.9619 53.788 89.4248 53.4715 88.8756 53.1868ZM97.5693 62.921C98.206 62.4191 98.6871 61.6605 98.8216 60.6118C98.8379 60.5062 99.003 59.4777 99.4061 58.0529C101.745 56.387 104.678 55.9722 107.233 56.9928C111.727 58.7876 118.168 63.1531 123.34 73.7585C123.582 74.2545 123.524 74.8093 123.186 75.2426C122.845 75.6777 122.318 75.8694 121.775 75.7532C117.534 74.8504 111.807 74.2545 104.753 73.9822C101.558 73.8591 99.5071 72.4673 98.3078 71.2415C98.7323 68.3895 98.4867 65.5026 97.5693 62.921ZM106.214 48.8374C106.579 49.7423 106.912 50.5784 107.207 51.3245C106.997 51.3496 104.799 51.763 103.933 52.0409C103.817 51.5209 103.689 50.9639 103.549 50.3734C104.183 49.7981 106.049 48.9243 106.214 48.8374ZM93.294 27.3171C93.6261 26.6612 94.264 26.2698 95 26.2698C95.7359 26.2698 96.3738 26.6612 96.7059 27.3169C98.7056 31.265 100.989 36.2833 103.505 42.2561C103.468 42.2674 102.224 42.7372 101.666 43.0238C101.213 41.345 100.712 39.5309 100.171 37.6091C99.5013 35.2294 97.4693 33.7941 94.9998 33.6917C90.8273 33.5185 89.7597 37.8543 89.7254 37.9764C89.4161 37.6392 89.0985 37.3057 88.7674 36.9786C90.4058 33.2633 91.9276 30.0145 93.294 27.3171ZM99.0471 44.7949C97.952 45.7354 96.9493 46.8769 96.0445 48.2203C95.101 45.8733 93.8042 43.3002 92.0342 40.8223C92.2577 40.0154 92.482 39.2112 92.7052 38.4189C93.0659 37.1367 94.1272 36.6799 95 36.6799C95.8727 36.6799 96.9342 37.1367 97.2949 38.4189C97.9418 40.7169 98.5297 42.8569 99.0471 44.7949ZM84.3099 37.792C84.5996 37.3804 85.0313 37.6242 85.1412 37.7159C90.3364 42.0419 92.989 47.9971 94.2995 52.2311C94.481 52.8176 95.0029 53.2334 95.6151 53.2794C96.2289 53.325 96.8055 52.9919 97.0722 52.4389C98.9293 48.5922 101.38 46.1289 104.356 45.117C104.557 45.0487 104.962 45.0782 105.105 45.4864C105.247 45.8946 104.937 46.1659 104.736 46.2344C101.07 47.4806 98.8652 51.1434 97.6607 53.9968C96.2925 57.2391 95.8608 60.2038 95.858 60.2267C95.8365 60.4056 95.7952 60.7083 95.2627 60.6953C95.2599 60.6955 95.2567 60.6951 95.2538 60.6949C94.9507 60.6822 94.7083 60.4447 94.6896 60.1387C94.6808 60.002 93.7068 46.3839 84.3856 38.6227C84.2224 38.4868 84.0204 38.2036 84.3099 37.792ZM83.4493 41.7897C82.1374 44.919 80.9818 47.7834 80.0891 50.0359C80.0524 49.607 80.0303 49.1761 80.0303 48.7446C80.0303 47.0469 80.7032 44.2259 81.9922 40.4332C82.1358 40.6081 83.1357 41.4915 83.4493 41.7897ZM56.2157 90.5643C55.062 90.9944 53.8424 90.7458 52.9537 89.9003C52.0676 89.0574 51.7596 87.8559 52.1301 86.6867C52.8575 84.3909 53.792 81.8039 54.9758 79.0999C54.416 81.7593 53.9404 86.6973 54.1707 87.434C54.2903 87.8169 54.5588 88.1357 54.916 88.3183C55.1288 88.4273 55.6697 88.5363 56.0693 88.4058C62.3349 86.3622 69.1328 85.2117 76.1543 85.1037C68.0477 86.817 61.3585 88.6478 56.2157 90.5643ZM86.3885 82.6384C76.2663 81.4604 66.2219 82.2501 57.1718 84.9272C57.4895 81.1989 58.4968 69.5153 67.0404 61.2436C67.6333 60.6696 67.6674 59.7313 67.101 59.1312C66.5344 58.531 65.5885 58.5043 64.9887 59.0707C63.7079 60.2799 62.515 61.5543 61.4012 62.8712C56.6361 59.643 52.3672 57.0576 48.7002 55.1793C47.6045 54.6181 46.9648 53.5505 46.9889 52.3238C47.0132 51.1007 47.692 50.0628 48.8048 49.547C56.0442 46.1928 66.8287 42.5071 77.9492 43.4085C77.3466 45.6454 77.0422 47.428 77.0422 48.7444C77.0422 49.6941 77.1201 50.6427 77.2677 51.5759C75.6192 51.9339 74.0119 52.5461 72.5014 53.4248C71.747 53.8639 70.9951 54.3361 70.267 54.8283C69.5833 55.2903 69.4036 56.2191 69.8656 56.9028C70.3275 57.5865 71.2563 57.7662 71.94 57.3042C72.613 56.8494 73.3077 56.4131 74.0043 56.0077C76.3692 54.6319 79.0268 54.0532 81.6657 54.2149C81.6633 54.2159 81.6609 54.2167 81.6585 54.2177C76.6766 56.2075 69.5645 60.9858 63.9745 72.4486C63.2312 73.9726 63.4175 75.7484 64.4604 77.083C65.3088 78.1684 66.9964 79.0353 68.8474 78.6762C72.9369 77.8827 78.4784 77.234 85.3624 76.9683C89.228 76.8192 93.4283 74.7127 95.2075 71.6408C94.9446 72.9166 94.5202 74.1776 93.9345 75.3791C92.3316 78.6662 89.7173 81.1578 86.3885 82.6384ZM96.6943 76.5314C97.0081 75.872 97.2812 75.1974 97.5135 74.5127C99.5055 76.0204 101.93 76.8641 104.638 76.9685C111.522 77.2342 117.075 77.8219 121.153 78.6764C122.929 79.0485 124.691 78.1685 125.54 77.083C126.583 75.7486 126.769 73.9728 126.025 72.4488C120.452 61.02 113.366 56.2368 108.386 54.2364C111.023 54.0801 113.848 54.3843 115.996 56.0081C132.979 68.8477 132.509 81.1871 132.828 84.9274C123.783 82.2515 113.744 81.4612 103.627 82.6368C100.702 81.3339 98.3165 79.2477 96.6943 76.5314ZM137.046 89.9003C136.157 90.746 134.938 90.9944 133.784 90.5643C128.643 88.6486 121.957 86.8184 113.855 85.1057C120.873 85.2145 127.694 86.2847 133.931 88.406C134.431 88.5761 134.872 88.4273 135.084 88.3185C135.442 88.1354 135.744 87.8255 135.83 87.4338C136.206 85.7191 135.037 79.1642 135.012 79.0324C136.032 81.3724 136.993 83.9172 137.87 86.6869C138.241 87.8559 137.933 89.0572 137.046 89.9003ZM141.3 55.1791C137.633 57.0576 133.365 59.6434 128.6 62.8714C125.289 58.9615 121.574 55.7963 117.498 53.425C115.996 52.5509 114.395 51.9333 112.734 51.5733C112.882 50.6408 112.958 49.6943 112.958 48.7446C112.958 47.4152 112.658 45.6442 112.054 43.4083C123.173 42.5085 133.957 46.1932 141.195 49.547C142.308 50.0628 142.987 51.1007 143.011 52.3238C143.035 53.5505 142.396 54.6182 141.3 55.1791Z" fill="black"/>
</g>
<path d="M161.52 70.7H161.67V71H157.35V70.7H157.5C157.66 70.7 157.8 70.65 157.92 70.55C158.04 70.43 158.14 70.29 158.22 70.13C158.32 69.97 158.39 69.8 158.43 69.62C158.47 69.44 158.49 69.27 158.49 69.11V53.06C158.49 52.92 158.47 52.76 158.43 52.58C158.39 52.4 158.32 52.23 158.22 52.07C158.14 51.91 158.04 51.78 157.92 51.68C157.8 51.56 157.66 51.5 157.5 51.5H157.35V51.2H168.9V54.38H168.6C168.6 53.66 168.44 53.13 168.12 52.79C167.82 52.43 167.34 52.25 166.68 52.25H160.53V69.11C160.53 69.27 160.55 69.44 160.59 69.62C160.63 69.8 160.69 69.97 160.77 70.13C160.87 70.29 160.98 70.43 161.1 70.55C161.22 70.65 161.36 70.7 161.52 70.7ZM170.401 68.9C170.221 69.42 169.941 69.9 169.561 70.34C169.181 70.78 168.621 71 167.881 71H166.951V70.7C167.071 70.7 167.231 70.67 167.431 70.61C167.631 70.53 167.841 70.41 168.061 70.25C168.281 70.09 168.501 69.89 168.721 69.65C168.941 69.39 169.131 69.07 169.291 68.69L174.961 53.15C175.061 52.85 175.111 52.62 175.111 52.46C175.111 52.16 175.021 51.93 174.841 51.77C174.681 51.59 174.511 51.5 174.331 51.5V51.2H176.791L183.511 69.56C183.611 69.84 183.801 70.1 184.081 70.34C184.361 70.56 184.671 70.68 185.011 70.7V71H180.721V70.7C180.881 70.7 181.041 70.64 181.201 70.52C181.381 70.38 181.471 70.2 181.471 69.98C181.471 69.92 181.451 69.83 181.411 69.71L175.771 54.17L170.401 68.9ZM200.506 70.7H200.656C201.136 70.7 201.376 70.48 201.376 70.04C201.376 69.88 201.346 69.71 201.286 69.53L198.586 62.24H193.336L190.726 69.41C190.666 69.57 190.636 69.72 190.636 69.86C190.636 70.12 190.706 70.33 190.846 70.49C190.986 70.63 191.136 70.7 191.296 70.7H191.446V71H188.116V70.7H188.266C188.526 70.7 188.776 70.55 189.016 70.25C189.276 69.93 189.486 69.56 189.646 69.14L196.516 50.84L203.236 68.96C203.376 69.36 203.566 69.75 203.806 70.13C204.066 70.51 204.396 70.7 204.796 70.7H204.946V71H200.506V70.7ZM193.636 61.22H198.256L195.946 54.95L193.636 61.22ZM226.991 69.95V73.7H226.691C226.671 73.44 226.601 73.15 226.481 72.83C226.361 72.51 226.191 72.21 225.971 71.93C225.771 71.67 225.531 71.45 225.251 71.27C224.971 71.09 224.661 71 224.321 71H210.491C210.151 71 209.841 71.09 209.561 71.27C209.281 71.47 209.031 71.7 208.811 71.96C208.611 72.24 208.441 72.54 208.301 72.86C208.181 73.18 208.111 73.46 208.091 73.7H207.791V69.95H209.111C209.751 69.95 210.201 69.58 210.461 68.84L217.361 50.75L224.321 68.75C224.461 69.05 224.651 69.33 224.891 69.59C225.131 69.83 225.411 69.95 225.731 69.95H226.991ZM211.121 69.95H222.671L216.881 55.04L211.121 69.95ZM243.17 70.7H243.32C243.48 70.7 243.62 70.65 243.74 70.55C243.86 70.43 243.96 70.29 244.04 70.13C244.14 69.95 244.21 69.77 244.25 69.59C244.29 69.39 244.31 69.21 244.31 69.05V55.31L234.35 68.78V69.05C234.35 69.21 234.37 69.39 234.41 69.59C234.47 69.77 234.54 69.94 234.62 70.1C234.7 70.26 234.8 70.4 234.92 70.52C235.04 70.64 235.18 70.7 235.34 70.7H235.49V71H231.23V70.7H231.38C231.54 70.7 231.68 70.65 231.8 70.55C231.92 70.43 232.02 70.29 232.1 70.13C232.2 69.95 232.27 69.77 232.31 69.59C232.35 69.39 232.37 69.21 232.37 69.05V53.06C232.37 52.92 232.35 52.76 232.31 52.58C232.27 52.4 232.2 52.23 232.1 52.07C232.02 51.91 231.92 51.78 231.8 51.68C231.68 51.56 231.54 51.5 231.38 51.5H231.23V51.2H235.49V51.5H235.25C235.11 51.52 234.98 51.59 234.86 51.71C234.76 51.83 234.67 51.97 234.59 52.13C234.51 52.27 234.45 52.43 234.41 52.61C234.37 52.77 234.35 52.92 234.35 53.06V66.92L244.31 53.45V53.06C244.31 52.92 244.29 52.76 244.25 52.58C244.21 52.4 244.14 52.23 244.04 52.07C243.96 51.91 243.86 51.78 243.74 51.68C243.62 51.56 243.48 51.5 243.32 51.5H243.17V51.2H247.43V51.5H247.28C247.12 51.5 246.98 51.56 246.86 51.68C246.74 51.78 246.64 51.91 246.56 52.07C246.48 52.23 246.41 52.4 246.35 52.58C246.31 52.76 246.29 52.92 246.29 53.06V69.05C246.29 69.21 246.31 69.38 246.35 69.56C246.41 69.74 246.48 69.92 246.56 70.1C246.64 70.26 246.74 70.4 246.86 70.52C246.98 70.64 247.12 70.7 247.28 70.7H247.43V71H243.17V70.7ZM262.183 50.9C263.743 50.9 265.143 51.18 266.383 51.74C267.623 52.28 268.673 53.02 269.533 53.96C270.413 54.88 271.083 55.96 271.543 57.2C272.023 58.42 272.263 59.7 272.263 61.04C272.263 62.54 271.983 63.92 271.423 65.18C270.883 66.44 270.133 67.52 269.173 68.42C268.213 69.32 267.093 70.03 265.813 70.55C264.553 71.05 263.203 71.3 261.763 71.3C260.223 71.3 258.833 71.02 257.593 70.46C256.373 69.9 255.333 69.16 254.473 68.24C253.633 67.32 252.983 66.26 252.523 65.06C252.063 63.86 251.833 62.61 251.833 61.31C251.833 60.03 252.063 58.77 252.523 57.53C252.983 56.27 253.653 55.15 254.533 54.17C255.433 53.19 256.523 52.4 257.803 51.8C259.083 51.2 260.543 50.9 262.183 50.9ZM262.153 70.25C263.493 70.19 264.663 69.89 265.663 69.35C266.683 68.79 267.533 68.09 268.213 67.25C268.893 66.39 269.393 65.45 269.713 64.43C270.053 63.41 270.223 62.4 270.223 61.4C270.223 60.3 270.023 59.19 269.623 58.07C269.223 56.95 268.653 55.94 267.913 55.04C267.173 54.12 266.283 53.38 265.243 52.82C264.223 52.24 263.073 51.95 261.793 51.95C260.553 51.95 259.443 52.23 258.463 52.79C257.483 53.33 256.643 54.03 255.943 54.89C255.263 55.75 254.743 56.71 254.383 57.77C254.023 58.83 253.843 59.87 253.843 60.89C253.843 61.99 254.053 63.1 254.473 64.22C254.893 65.32 255.473 66.32 256.213 67.22C256.953 68.12 257.823 68.85 258.823 69.41C259.843 69.97 260.953 70.25 262.153 70.25ZM275.846 68.9C275.666 69.42 275.386 69.9 275.006 70.34C274.626 70.78 274.066 71 273.326 71H272.396V70.7C272.516 70.7 272.676 70.67 272.876 70.61C273.076 70.53 273.286 70.41 273.506 70.25C273.726 70.09 273.946 69.89 274.166 69.65C274.386 69.39 274.576 69.07 274.736 68.69L280.406 53.15C280.506 52.85 280.556 52.62 280.556 52.46C280.556 52.16 280.466 51.93 280.286 51.77C280.126 51.59 279.956 51.5 279.776 51.5V51.2H282.236L288.956 69.56C289.056 69.84 289.246 70.1 289.526 70.34C289.806 70.56 290.116 70.68 290.456 70.7V71H286.166V70.7C286.326 70.7 286.486 70.64 286.646 70.52C286.826 70.38 286.916 70.2 286.916 69.98C286.916 69.92 286.896 69.83 286.856 69.71L281.216 54.17L275.846 68.9ZM293.351 51.2H297.521V51.5H297.341C297.121 51.5 296.971 51.57 296.891 51.71C296.811 51.83 296.771 51.96 296.771 52.1C296.771 52.2 296.781 52.29 296.801 52.37C296.821 52.45 296.841 52.51 296.861 52.55L301.991 63.77L306.581 52.88C306.601 52.84 306.631 52.76 306.671 52.64C306.711 52.5 306.731 52.37 306.731 52.25C306.731 51.97 306.631 51.78 306.431 51.68C306.231 51.56 306.081 51.5 305.981 51.5V51.2H309.191V51.5C308.831 51.5 308.551 51.6 308.351 51.8C308.171 51.98 308.031 52.17 307.931 52.37L300.731 69.59C300.491 70.17 300.171 70.6 299.771 70.88C299.371 71.14 298.941 71.27 298.481 71.27C298.181 71.27 297.911 71.22 297.671 71.12C297.431 71.04 297.221 70.94 297.041 70.82C296.861 70.7 296.721 70.59 296.621 70.49C296.541 70.39 296.501 70.34 296.501 70.34L297.251 68.69C297.411 69.07 297.621 69.37 297.881 69.59C298.141 69.79 298.411 69.89 298.691 69.89C298.871 69.89 299.051 69.83 299.231 69.71C299.431 69.57 299.601 69.36 299.741 69.08L300.911 66.23L294.671 52.46C294.391 51.86 293.951 51.54 293.351 51.5V51.2ZM320.21 51.98C318.73 51.98 317.44 52.25 316.34 52.79C315.26 53.31 314.36 54 313.64 54.86C312.92 55.7 312.38 56.65 312.02 57.71C311.68 58.77 311.51 59.82 311.51 60.86C311.51 62.04 311.74 63.2 312.2 64.34C312.66 65.46 313.29 66.46 314.09 67.34C314.91 68.2 315.86 68.9 316.94 69.44C318.02 69.96 319.19 70.22 320.45 70.22C320.81 70.22 321.23 70.18 321.71 70.1C322.21 70.02 322.7 69.87 323.18 69.65C323.66 69.41 324.1 69.08 324.5 68.66C324.92 68.24 325.24 67.69 325.46 67.01H325.76V70.34C325.46 70.34 325.14 70.38 324.8 70.46C324.48 70.54 324.12 70.63 323.72 70.73C323.2 70.87 322.62 71 321.98 71.12C321.36 71.24 320.7 71.3 320 71.3C318.26 71.3 316.73 71 315.41 70.4C314.09 69.8 312.99 69.02 312.11 68.06C311.23 67.1 310.57 66.02 310.13 64.82C309.69 63.6 309.47 62.37 309.47 61.13C309.47 59.89 309.69 58.66 310.13 57.44C310.57 56.22 311.24 55.13 312.14 54.17C313.04 53.19 314.17 52.4 315.53 51.8C316.89 51.2 318.49 50.9 320.33 50.9C320.99 50.9 321.58 50.96 322.1 51.08C322.64 51.2 323.12 51.32 323.54 51.44C323.84 51.54 324.11 51.62 324.35 51.68C324.61 51.72 324.86 51.74 325.1 51.74V55.07H324.8C324.68 54.45 324.46 53.94 324.14 53.54C323.82 53.12 323.44 52.8 323 52.58C322.58 52.36 322.12 52.21 321.62 52.13C321.14 52.03 320.67 51.98 320.21 51.98Z" fill="#C61469"/>
<defs>
<clipPath id="clip0_28_0">
<rect width="102" height="102" fill="white" transform="translate(44 10)"/>
</clipPath>
</defs>
</svg>
