<svg width="370" height="122" viewBox="0 0 370 122" fill="none" xmlns="http://www.w3.org/2000/svg">
<path d="M0 0H370V122H0V0Z" fill="#E86060"/>
<path d="M248.83 64.2395L248.786 64.1651C247.117 61.2653 244.016 59.451 240.678 59.451C240.501 59.451 240.324 59.4659 240.146 59.4659C240.885 58.4844 241.594 57.4583 242.258 56.3876C244.282 55.0938 245.714 53.116 246.32 50.7664C246.94 48.3275 246.571 45.7995 245.301 43.6432L245.256 43.5688C244.887 42.9443 244.075 42.7361 243.455 43.1078L243.381 43.1525C239.157 45.6805 237.636 51.0489 239.777 55.4061C236.041 61.3396 230.783 65.8604 224.743 68.3736L236.484 58.529C236.779 58.2762 236.956 57.9044 236.956 57.5178C236.956 57.1311 236.779 56.7594 236.484 56.5066L227.15 48.6844C227.298 46.9148 227.283 45.1303 227.076 43.3309C231.684 42.5576 235.096 38.4086 234.874 33.6053V33.531C234.845 32.8023 234.224 32.2372 233.515 32.2669H233.427C230.074 32.4305 227.209 34.3489 225.688 37.1149C225.496 36.5349 225.289 35.9698 225.053 35.3898C224.551 34.1407 223.96 32.9212 223.296 31.7316C227.49 30.1701 230.074 25.7386 229.233 21.1732L229.218 21.0988C229.085 20.385 228.405 19.9092 227.682 20.043L227.608 20.0579C223.857 20.7568 221.066 23.6418 220.239 27.1513C219.013 25.6196 217.669 24.1771 216.177 22.8387C219.485 19.7159 220.12 14.5259 217.477 10.6446L217.433 10.5702C217.241 10.2877 216.93 10.0795 216.591 10.02C216.251 9.96051 215.897 10.0349 215.601 10.2282L215.542 10.2728C213.489 11.7004 212.101 13.8418 211.643 16.3104C211.466 17.3068 211.437 18.318 211.57 19.2995C210.536 18.6303 209.458 18.0057 208.35 17.4257C206.593 15.0612 203.816 13.6634 200.877 13.6634C198.943 13.6634 197.082 14.2582 195.487 15.3884L195.428 15.433C194.837 15.8494 194.704 16.6822 195.118 17.277L195.162 17.3365C196.904 19.8348 199.77 21.3219 202.797 21.3219C204.495 21.3219 206.135 20.8609 207.567 19.9984C208.97 20.7419 210.299 21.5747 211.555 22.467C208.069 23.2551 205.293 26.0063 204.495 29.6199L189.358 16.9201C188.87 16.5186 188.162 16.5186 187.674 16.9201L172.522 29.6645C171.739 26.0509 168.948 23.2997 165.463 22.5116C166.718 21.6045 168.047 20.7866 169.435 20.0281C170.883 20.9055 172.522 21.3517 174.22 21.3517C177.248 21.3517 180.113 19.8646 181.855 17.3662L181.9 17.3068C182.313 16.7119 182.18 15.894 181.59 15.4628L181.516 15.4181C179.936 14.288 178.06 13.6931 176.125 13.6931C173.186 13.6931 170.41 15.091 168.653 17.4555C167.53 18.0354 166.467 18.66 165.433 19.3292C165.566 18.3477 165.551 17.3365 165.359 16.3401C164.901 13.8716 163.528 11.7153 161.475 10.3025L161.401 10.2579C161.121 10.0646 160.766 9.99025 160.412 10.0497C160.072 10.1092 159.762 10.3174 159.57 10.6L159.526 10.6594C158.108 12.7265 157.576 15.2248 158.034 17.7083C158.403 19.701 159.378 21.5004 160.825 22.8536C159.334 24.192 157.975 25.6494 156.764 27.1662C156.498 26.036 156.04 24.9653 155.376 23.9838C153.973 21.9019 151.831 20.5189 149.38 20.043L149.306 20.0281C148.966 19.9687 148.612 20.043 148.316 20.2363C148.036 20.4297 147.829 20.7419 147.77 21.084L147.755 21.1583C146.899 25.7386 149.513 30.1701 153.707 31.7167C152.732 33.4566 151.935 35.256 151.314 37.1C150.96 36.4605 150.532 35.8508 150.03 35.3006C148.346 33.4417 146.057 32.3562 143.546 32.2372H143.472C142.749 32.2074 142.143 32.7725 142.114 33.5012V33.5756C141.892 38.3938 145.318 42.5428 149.926 43.3012C149.719 45.0857 149.705 46.8702 149.852 48.6398L140.533 56.4917C140.238 56.7445 140.061 57.1163 140.061 57.5029C140.061 57.8896 140.238 58.2613 140.533 58.5141L152.378 68.4479C146.5 66.024 141.095 61.5924 137.24 55.4805C138.23 53.4729 138.466 51.1976 137.919 48.9967C137.299 46.5579 135.778 44.5057 133.637 43.2268L133.563 43.1822C133.267 43.0037 132.898 42.9591 132.573 43.0335C132.234 43.1227 131.953 43.3458 131.776 43.6432L131.732 43.7176C129.118 48.1045 130.491 53.7554 134.744 56.462C135.409 57.5327 136.103 58.5588 136.856 59.5402C136.679 59.5254 136.502 59.5254 136.324 59.5254C132.987 59.5254 129.885 61.3247 128.217 64.2395L128.172 64.3138C127.818 64.9384 128.025 65.7563 128.66 66.1132L128.734 66.1578C130.151 66.9757 131.761 67.4218 133.4 67.4218C136.265 67.4218 138.953 66.0983 140.711 63.8826C145.57 68.552 151.447 71.5857 157.473 72.7159L162.081 76.5823C161.815 76.5229 161.534 76.5377 161.268 76.6567L161.194 76.6864C157.665 78.2925 155.612 81.8467 155.715 85.5347C154.534 84.5383 153.412 83.4527 152.333 82.2779C153.692 77.6084 151.27 72.5969 146.677 70.8422L146.603 70.8124C146.278 70.6934 145.924 70.7083 145.599 70.8422C145.289 70.9909 145.038 71.2585 144.92 71.5857L144.89 71.6601C144.004 74.0097 144.078 76.5675 145.112 78.8576C146.101 81.0734 147.859 82.7687 150.059 83.6907C150.886 84.6424 151.757 85.5346 152.658 86.3674C149.188 86.7838 146.175 89.1334 144.964 92.4794L144.934 92.5537C144.683 93.2378 145.038 93.9962 145.717 94.249L145.791 94.2788C146.825 94.6654 147.903 94.8439 148.996 94.8439C152.437 94.8439 155.568 92.9255 157.192 89.9513C158.861 91.0666 160.589 92.0332 162.361 92.8363C159.171 94.5167 157.104 97.9816 157.355 101.803V101.878C157.384 102.235 157.532 102.562 157.798 102.785C158.034 102.993 158.344 103.112 158.654 103.112C158.684 103.112 158.713 103.112 158.743 103.112H158.817C163.425 102.8 167.043 99.1564 167.486 94.6654C169.406 95.171 171.34 95.5131 173.26 95.6469C172.729 96.1525 172.256 96.7176 171.843 97.3422C170.469 99.439 169.996 101.952 170.513 104.421L170.528 104.495C170.661 105.12 171.207 105.551 171.813 105.551C171.902 105.551 171.99 105.536 172.079 105.521L172.167 105.506C176.864 104.525 179.995 100.138 179.566 95.4387C180.91 95.2454 182.225 94.948 183.524 94.5613L186.714 97.2381L185.4 99.1118C182.978 102.562 182.978 107.99 185.4 111.44C185.813 112.035 186.64 112.183 187.231 111.752C187.822 111.336 187.97 110.503 187.541 109.908C185.784 107.395 185.784 103.142 187.541 100.629L188.398 99.3944L189.254 100.629C191.012 103.142 191.012 107.395 189.254 109.908C188.841 110.503 188.974 111.336 189.565 111.752C189.801 111.916 190.052 111.99 190.318 111.99C190.731 111.99 191.13 111.797 191.396 111.425C193.818 107.975 193.818 102.547 191.396 99.097L190.155 97.3273L193.567 94.4572C194.955 94.8885 196.388 95.2156 197.85 95.4238C197.421 100.123 200.567 104.495 205.249 105.491L205.322 105.506C205.411 105.521 205.5 105.536 205.588 105.536C206.194 105.536 206.74 105.105 206.873 104.48L206.888 104.406C207.39 101.937 206.917 99.4241 205.559 97.3273C205.145 96.7027 204.673 96.1376 204.141 95.632C206.061 95.4833 208.01 95.1562 209.915 94.6505C210.359 99.1267 213.977 102.785 218.585 103.097H218.658C218.688 103.097 218.717 103.097 218.747 103.097C219.057 103.097 219.367 102.978 219.604 102.77C219.869 102.547 220.032 102.22 220.047 101.863V101.774C220.298 97.937 218.23 94.4721 215.04 92.7917C216.812 91.9886 218.54 91.0369 220.209 89.9067C221.834 92.8809 224.964 94.7992 228.405 94.7992C229.498 94.7992 230.576 94.6059 231.61 94.2193L231.684 94.1895C232.363 93.9367 232.703 93.1783 232.467 92.4942L232.437 92.4199C231.226 89.0591 228.199 86.7095 224.743 86.3079C225.644 85.4752 226.515 84.5829 227.342 83.6312C231.994 81.698 234.313 76.3593 232.511 71.6006L232.482 71.5262C232.231 70.8422 231.463 70.5001 230.798 70.7529L230.724 70.7827C226.131 72.5374 223.709 77.549 225.068 82.2184C224.005 83.3932 222.867 84.4788 221.686 85.4752C221.789 81.802 219.736 78.2479 216.207 76.627L216.133 76.5972C215.468 76.2998 214.7 76.5972 214.405 77.2515L214.376 77.3259C212.544 81.3857 213.829 86.07 217.196 88.6724C212.529 91.4533 207.405 92.9255 202.413 93.0296C203.225 91.721 203.713 90.2339 203.816 88.6427C203.875 87.7207 203.801 86.8284 203.609 85.951L219.544 72.5821C220.741 72.359 221.922 72.0616 223.118 71.6749C227.977 70.1135 232.452 67.3921 236.233 63.7487C237.99 65.9496 240.678 67.2731 243.528 67.2731C245.153 67.2731 246.777 66.8419 248.195 66.0091L248.269 65.9645C248.978 65.6819 249.185 64.8789 248.83 64.2395ZM243.617 46.2605C244.045 47.4948 244.104 48.8332 243.765 50.1269C243.44 51.4207 242.746 52.5658 241.786 53.4431C240.929 50.9151 241.653 48.0599 243.617 46.2605ZM232.171 35.0924C231.758 37.7394 229.794 39.9106 227.209 40.5798C227.638 37.9328 229.602 35.7616 232.171 35.0924ZM202.782 18.7195C201.069 18.7195 199.43 18.0503 198.189 16.9052C199.031 16.5335 199.932 16.3401 200.862 16.3401C202.576 16.3401 204.215 17.0093 205.455 18.1544C204.614 18.5262 203.713 18.7195 202.782 18.7195ZM176.14 16.3401C177.071 16.3401 177.971 16.5335 178.813 16.9052C177.573 18.0652 175.948 18.7195 174.22 18.7195C173.29 18.7195 172.389 18.5262 171.547 18.1544C172.788 16.9945 174.427 16.3401 176.14 16.3401ZM144.831 35.0924C146.086 35.4196 147.224 36.1036 148.124 37.1C149.025 38.0963 149.587 39.3009 149.793 40.5947C147.209 39.9106 145.245 37.7394 144.831 35.0924ZM135.202 53.5175C133.238 51.7032 132.514 48.8629 133.386 46.32C134.346 47.1974 135.025 48.3424 135.365 49.6511C135.689 50.9448 135.63 52.2832 135.202 53.5175ZM133.386 64.7748C132.677 64.7748 131.968 64.6558 131.288 64.4328C132.559 63.02 134.375 62.1724 136.31 62.1724C137.019 62.1724 137.727 62.2914 138.407 62.5144C137.152 63.942 135.32 64.7748 133.386 64.7748ZM149.985 80.7016C148.892 80.0027 148.021 78.9914 147.475 77.772C146.928 76.5526 146.751 75.2291 146.958 73.9353C148.051 74.6342 148.922 75.6455 149.468 76.8649C150.015 78.0843 150.192 79.4078 149.985 80.7016ZM148.966 92.2117C148.641 92.2117 148.316 92.182 148.006 92.1373C149.217 90.1744 151.373 88.9401 153.722 88.9401C154.047 88.9401 154.371 88.9698 154.682 89.0144C153.471 90.9625 151.314 92.2117 148.966 92.2117ZM227.977 76.8649C228.524 75.6455 229.395 74.6342 230.488 73.9353C230.695 75.2291 230.517 76.5526 229.971 77.772C229.425 78.9914 228.553 80.0027 227.46 80.7016C227.254 79.4078 227.431 78.0843 227.977 76.8649ZM223.724 88.9401C226.072 88.9401 228.228 90.1892 229.439 92.1373C229.114 92.182 228.804 92.2117 228.479 92.2117C226.131 92.2117 223.975 90.9625 222.764 89.0144C223.074 88.9698 223.399 88.9401 223.724 88.9401ZM216.384 79.8093C218.54 81.3857 219.559 84.1368 218.983 86.7541C216.827 85.1629 215.793 82.4266 216.384 79.8093ZM217.433 100.257C214.863 99.5282 212.943 97.3273 212.589 94.6654C215.158 95.3792 217.078 97.595 217.433 100.257ZM224.61 46.543L223.296 45.4426C223.739 45.1898 224.152 44.9072 224.551 44.5949C224.595 45.2493 224.625 45.8887 224.61 46.543ZM219.028 41.8587C219.604 41.6951 220.194 41.6208 220.8 41.6208C221.686 41.6208 222.557 41.7992 223.369 42.1412C222.705 42.7807 221.937 43.2714 221.08 43.5986L219.028 41.8587ZM226.751 23.0321C226.692 25.7088 225.053 28.1328 222.587 29.1589C222.646 26.4821 224.285 24.0582 226.751 23.0321ZM214.213 16.816C214.449 15.4925 215.07 14.3177 215.956 13.366C216.99 15.8345 216.458 18.7344 214.612 20.6676C214.11 19.4482 213.962 18.1247 214.213 16.816ZM213.386 24.9058C212.411 27.3893 210.063 29.0845 207.361 29.1738C208.335 26.7052 210.683 24.995 213.386 24.9058ZM207.154 31.8208C210.979 31.8208 214.316 29.5009 215.749 26.0657C218.717 29.0548 221.066 32.5346 222.616 36.3564C223.03 37.3677 223.369 38.3938 223.65 39.405C222.734 39.1076 221.774 38.9589 220.8 38.9589C219.367 38.9589 217.964 39.286 216.709 39.8957L207.065 31.8059C207.095 31.8208 207.124 31.8208 207.154 31.8208ZM169.642 29.1738C166.925 29.0845 164.576 27.3744 163.602 24.9058C166.334 24.995 168.682 26.7052 169.642 29.1738ZM160.633 17.2175C160.397 15.894 160.545 14.5705 161.047 13.366C161.948 14.3028 162.553 15.4925 162.804 16.816C163.041 18.1395 162.893 19.463 162.391 20.6676C161.49 19.7158 160.884 18.5262 160.633 17.2175ZM150.251 23.0321C151.447 23.5228 152.481 24.3705 153.234 25.4709C153.988 26.5714 154.386 27.8503 154.416 29.1589C151.949 28.1328 150.295 25.7237 150.251 23.0321ZM161.268 26.0806C162.701 29.5009 166.039 31.8208 169.864 31.8208C169.893 31.8208 169.923 31.8208 169.952 31.8208L160.308 39.9106C159.053 39.3009 157.665 38.9737 156.218 38.9737C155.243 38.9737 154.298 39.1224 153.382 39.4199C154.711 34.5719 157.429 29.9471 161.268 26.0806ZM155.922 43.5837C155.08 43.2566 154.298 42.7658 153.633 42.1264C154.445 41.7843 155.317 41.6059 156.203 41.6059C156.808 41.6059 157.399 41.6951 157.975 41.8438L155.922 43.5837ZM152.466 44.6098C152.85 44.9221 153.264 45.2047 153.707 45.4426L152.407 46.5282C152.407 45.8887 152.422 45.2493 152.466 44.6098ZM188.501 19.6861L233.589 57.5029L188.501 95.3197L143.413 57.5029L188.501 19.6861ZM158.462 86.7541C157.886 84.1368 158.905 81.3857 161.062 79.8093C161.638 82.4266 160.619 85.1777 158.462 86.7541ZM159.998 100.257C160.367 97.595 162.273 95.3941 164.842 94.6654C164.488 97.3124 162.568 99.5282 159.998 100.257ZM160.19 88.7468C163.557 86.1444 164.842 81.46 163.011 77.4002L162.996 77.3705L173.703 86.3526C173.556 87.1258 173.511 87.9289 173.556 88.7319C173.659 90.3082 174.146 91.8102 174.959 93.1188C169.982 92.9999 164.857 91.5276 160.19 88.7468ZM172.95 102.517C172.95 101.209 173.319 99.9297 174.058 98.7995C174.781 97.6842 175.8 96.8217 176.997 96.3012C176.997 98.9929 175.387 101.447 172.95 102.517ZM176.17 88.5386C176.17 88.494 176.17 88.4494 176.17 88.4047L178.252 90.1446C178.119 90.8436 177.883 91.5276 177.514 92.1671C176.731 91.1261 176.258 89.877 176.17 88.5386ZM180.187 92.6876C180.29 92.4645 180.364 92.2414 180.452 92.0184L181.043 92.5091C180.763 92.5686 180.482 92.643 180.187 92.6876ZM196.048 92.4348L196.89 91.721C196.993 92.0481 197.111 92.3753 197.244 92.6876C196.845 92.6132 196.447 92.524 196.048 92.4348ZM203.388 98.8144C204.111 99.9297 204.495 101.209 204.495 102.532C202.044 101.461 200.449 99.0077 200.449 96.3161C201.645 96.8366 202.664 97.6842 203.388 98.8144ZM201.261 88.5386C201.173 89.877 200.7 91.1261 199.917 92.1671C199.504 91.4384 199.253 90.6354 199.135 89.8324L201.276 88.033C201.276 88.2114 201.276 88.375 201.261 88.5386ZM243.617 64.7153C241.682 64.7153 239.866 63.8677 238.596 62.4549C239.275 62.2319 239.984 62.1129 240.693 62.1129C242.627 62.1129 244.459 62.9606 245.714 64.3733C245.035 64.5964 244.326 64.7153 243.617 64.7153Z" fill="black"/>
<path d="M204.98 51.1685L207.609 48.9373L203.545 47.5826C201.792 47.0248 199.88 47.1841 198.286 48.1404L199.003 52.4435C201.075 53.081 203.306 52.6029 204.98 51.1685Z" fill="#305C1E"/>
<path d="M197.887 46.7859C201.394 44.7937 203.625 41.0484 203.625 36.9844V35.3906C198.605 35.3906 194.222 38.7375 192.867 43.5984" fill="#305C1E"/>
<path d="M192.469 68.8593C192.469 74.9952 197.489 80.0155 203.625 80.0155V78.4218C203.625 72.8437 199.481 68.1421 193.903 67.3452" fill="#305C1E"/>
<path d="M195.178 65.0343L197.728 66.9468C199.402 68.1422 201.553 68.5406 203.545 67.8234L207.609 66.4687L204.98 64.2375C203.147 62.7234 200.677 62.2453 198.445 63.2015L195.577 64.3968" fill="#305C1E"/>
<path d="M199.481 55.3127L198.206 47.6627C198.127 46.9455 197.648 46.308 197.011 45.9893L193.106 43.758C192.628 43.5189 192.07 43.3596 191.592 43.4393L186.891 44.1564L183.703 43.3596L180.675 40.9689C180.117 40.4908 179.241 40.4908 178.683 40.9689L176.213 42.9611C175.894 43.2002 175.495 43.3596 175.017 43.2799L170.236 42.7221C169.359 42.6424 168.563 43.2799 168.483 44.1564C168.483 44.2361 168.483 44.2361 168.483 44.3158V44.9533L164.498 50.0533C163.542 51.3283 163.383 53.0814 164.18 54.4361L164.817 55.5518L164.578 55.3127L162.905 57.3846C162.108 58.4205 162.267 59.9346 163.303 60.7314C163.303 60.7314 163.303 60.7314 163.383 60.8111L167.766 64.0783C167.766 64.0783 165.375 71.2502 173.344 74.4377C181.313 77.6252 184.5 72.0471 184.5 72.0471C184.58 72.0471 184.659 72.0471 184.659 72.0471L189.281 71.4096C189.759 71.3299 190.238 71.0908 190.636 70.7721L193.744 67.6643C193.903 67.5049 194.063 67.2658 194.222 67.0268L199.242 56.9064C199.481 56.3486 199.561 55.8705 199.481 55.3127Z" fill="#BD0000"/>
<path d="M177.248 55.233L178.683 56.269C179.241 56.6674 179.958 56.8268 180.595 56.6674L186.811 55.3924C187.767 55.233 188.564 54.4361 188.723 53.4002L189.122 50.7705C189.281 49.8143 188.803 48.858 188.006 48.3002L185.297 46.7064C184.898 46.4674 184.5 46.3877 184.102 46.3877H182.03C181.392 46.3877 180.755 46.6268 180.356 47.1049L179.241 48.2205C179.002 48.4596 178.922 48.858 179.081 49.1768L179.48 49.9736L178.444 50.2924C177.966 50.4518 177.488 50.7705 177.248 51.2486L176.77 51.9658C175.973 53.0814 176.213 54.5158 177.248 55.233ZM178.045 52.9221L178.523 52.2049C178.603 52.0455 178.763 51.9658 178.922 51.8861L179.798 51.5674C179.958 52.7627 181.313 53.6393 182.986 53.6393C184.739 53.6393 186.173 52.6033 186.173 51.2486C186.173 49.8939 184.739 48.858 182.986 48.858C182.269 48.858 181.552 49.0174 180.994 49.4158L180.834 49.0174L181.552 48.3002C181.711 48.1408 181.87 48.0611 182.109 48.0611H184.181C184.341 48.0611 184.5 48.0611 184.58 48.1408L187.289 49.7346C187.608 49.8939 187.688 50.2127 187.688 50.5314L187.289 53.1611C187.209 53.4799 186.97 53.7189 186.652 53.7986L180.436 55.0736C180.197 55.1533 179.958 55.0736 179.798 54.9143L178.364 53.8783C177.886 53.7189 177.806 53.2408 178.045 52.9221ZM181.313 51.3283C181.313 51.0096 181.95 50.5314 182.906 50.5314C183.863 50.5314 184.5 51.0096 184.5 51.3283C184.5 51.6471 183.863 52.1252 182.906 52.1252C181.95 52.1252 181.313 51.6471 181.313 51.3283Z" fill="black"/>
<path d="M195.43 69.898L194.303 71.0249L195.881 72.6026L197.008 71.4757L195.43 69.898Z" fill="black"/>
<path d="M162.905 61.4484L166.889 64.3969C166.491 66.3094 165.853 72.2859 173.105 75.1547C174.619 75.7922 176.292 76.1906 177.966 76.1906C180.755 76.2703 183.305 74.9953 184.978 72.7641L189.441 72.1266C190.158 72.0469 190.716 71.7281 191.273 71.25L191.911 70.6125C192.708 76.5094 197.728 80.8125 203.625 80.8125C204.103 80.8125 204.422 80.4938 204.422 80.0156V78.4219C204.422 74.4375 202.43 70.6922 199.083 68.4609C200.597 69.0187 202.27 69.0984 203.784 68.5406L207.848 67.1859C208.247 67.0266 208.486 66.6281 208.327 66.15C208.247 65.9906 208.167 65.9109 208.088 65.8313L205.458 63.6C203.466 61.8469 200.597 61.3688 198.127 62.4047L197.17 62.8031L199.959 57.225C200.278 56.5875 200.358 55.95 200.278 55.3125L199.959 53.5594C200.198 53.5594 200.517 53.6391 200.836 53.6391C202.509 53.6391 204.183 53.0016 205.458 51.9656L208.088 49.7344C208.406 49.4156 208.486 48.9375 208.167 48.6188C208.088 48.5391 207.928 48.4594 207.848 48.3797L203.784 47.025C202.27 46.5469 200.597 46.5469 199.083 47.1047C202.43 44.7141 204.422 40.9688 204.422 36.9844V35.3906C204.422 34.9125 204.103 34.5938 203.625 34.5938C198.525 34.5938 193.983 37.8609 192.309 42.7219C192.07 42.7219 191.752 42.7219 191.513 42.7219L186.811 43.3594C185.855 42.8813 184.898 42.5625 183.863 42.4828L181.153 40.3312C180.277 39.6141 179.002 39.6141 178.205 40.3312L175.734 42.3234C175.575 42.4828 175.336 42.4828 175.177 42.4828L170.395 41.925C169.12 41.7656 167.925 42.7219 167.766 43.9969C167.766 44.0766 167.766 44.1562 167.766 44.2359V44.5547L164.02 49.4156C162.825 50.9297 162.666 53.0016 163.622 54.675L163.781 54.9141L162.347 56.9062C161.231 58.2609 161.47 60.2531 162.825 61.3687C162.825 61.3687 162.825 61.3688 162.905 61.4484ZM173.662 73.7203C168.244 71.5687 168.084 67.5047 168.323 65.5125C168.642 65.6719 168.961 65.8312 169.28 65.9109C172.228 66.8672 174.3 67.5047 175.814 67.9031V69.1781C175.814 70.2141 176.372 71.25 177.248 71.8078L177.966 72.2859C178.523 72.6047 179.081 72.8438 179.719 72.8438H182.827C181.392 74.1188 178.444 75.6328 173.662 73.7203ZM202.828 77.8641L198.684 73.0828L197.489 74.1187L201.713 78.9797C196.931 78.1031 193.425 73.9594 193.266 69.0984L194.222 68.1422C199.003 69.0187 202.509 73.0828 202.828 77.8641ZM198.764 63.8391C200.677 63.0422 202.908 63.4406 204.502 64.7953L206.095 66.15L203.386 67.0266C201.633 67.5844 199.8 67.2656 198.286 66.2297L196.373 64.875L198.764 63.8391ZM197.17 67.425C196.533 67.1859 195.895 66.9469 195.178 66.7875L195.497 66.2297L197.17 67.425ZM203.306 48.3797L206.016 49.2562L204.422 50.6109C203.147 51.7266 201.394 52.2047 199.72 51.8062L199.163 48.6188C200.517 47.9813 201.952 47.9016 203.306 48.3797ZM201.713 36.3469L197.489 41.2078L198.684 42.2438L202.828 37.4625C202.669 40.8094 200.836 43.8375 198.047 45.6703C197.888 45.5109 197.648 45.3516 197.489 45.2719L193.903 43.2C195.019 39.6937 198.047 37.0641 201.713 36.3469ZM191.752 44.2359C192.07 44.1562 192.469 44.2359 192.788 44.3953L196.692 46.6266C197.091 46.8656 197.409 47.2641 197.489 47.7422L198.764 55.3922C198.844 55.7109 198.764 56.0297 198.605 56.3484L193.584 66.4688C193.505 66.6281 193.425 66.7875 193.266 66.8672L190.078 70.1344C189.839 70.3734 189.52 70.5328 189.202 70.6125L184.58 71.25C184.5 71.25 184.42 71.25 184.341 71.25H179.639C179.32 71.25 179.002 71.1703 178.763 71.0109L178.045 70.5328C177.567 70.2141 177.328 69.7359 177.328 69.1781V68.3813C178.125 68.6203 178.922 68.7797 179.719 68.8594C181.392 68.8594 183.942 66.5484 184.819 65.6719H186.333C186.811 65.6719 187.369 65.5125 187.767 65.1938L193.266 61.1297C193.744 60.8109 194.063 60.2531 194.142 59.6953L194.78 56.4281V56.3484L196.055 52.4438C196.294 51.7266 196.214 50.9297 195.736 50.2922L192.708 46.0687C192.389 45.3516 191.592 44.9531 190.875 44.9531H188.803C188.723 44.8734 188.644 44.7937 188.564 44.7141L191.752 44.2359ZM168.483 49.4953C168.483 49.3359 168.562 49.1766 168.562 48.9375C169.12 48.0609 169.758 47.1844 170.555 46.4672C170.794 46.1484 171.272 46.1484 171.591 46.3875L172.786 47.2641C172.069 47.9016 171.75 48.7781 171.75 49.6547C171.75 53.0812 174.22 56.3484 174.3 56.5078C174.38 56.5875 174.38 56.5875 174.459 56.6672L178.444 59.8547C178.523 59.8547 178.523 59.9344 178.603 59.9344C178.683 60.0938 181.95 61.6875 184.5 61.6875C186.652 61.6875 187.767 59.6953 188.245 58.6594C189.122 58.4203 189.919 57.8625 190.317 57.0656L192.389 53.4C192.469 53.1609 192.469 52.9219 192.469 52.6828C191.831 50.5313 190.955 48.4594 189.919 46.5469H190.875C191.114 46.5469 191.353 46.7062 191.513 46.8656L194.541 51.0891C194.7 51.3281 194.7 51.5672 194.62 51.8062L193.345 55.7109C193.345 55.7906 193.266 55.8703 193.266 56.0297L192.628 59.2969C192.628 59.4562 192.469 59.6953 192.309 59.775L188.484 62.6438C188.963 61.8469 189.281 60.9703 189.361 60.0141H187.767C187.767 60.0141 187.688 62.6438 184.42 63.9984H183.942C182.348 63.6797 177.169 61.1297 172.308 56.9859C167.766 53.2406 168.244 50.6109 168.483 49.4953ZM176.531 50.5312C176.531 48.6187 177.886 46.9453 179.798 46.5469H179.878C180.117 46.4672 180.277 46.3875 180.356 46.2281L181.791 44.1562C182.747 44.0766 185.456 43.9172 187.13 45.5906C189.042 47.5031 190.477 51.7266 190.795 52.9219L188.883 56.3484C188.405 57.225 187.289 57.5438 186.492 57.0656C186.253 56.9062 186.094 56.7469 185.934 56.5875L184.659 57.5437C185.138 58.1812 185.775 58.5797 186.492 58.7391C186.173 59.5359 185.377 60.0938 184.5 60.2531C182.508 60.2531 179.798 58.9781 179.32 58.7391L175.495 55.7109C175.177 55.2328 173.344 52.5234 173.344 49.8938C173.264 49.4156 173.503 48.9375 173.822 48.6984C174.3 48.3797 174.938 48.2203 175.495 48.2203C175.097 49.0172 174.938 49.8141 174.938 50.6906H176.531V50.5312ZM169.598 43.7578C169.758 43.5984 169.997 43.5188 170.236 43.5984L175.017 44.1562C175.655 44.2359 176.292 44.0766 176.77 43.6781L179.241 41.6859C179.559 41.4469 179.958 41.4469 180.277 41.6859L181.472 42.6422C181.313 42.6422 181.233 42.6422 181.233 42.7219C180.994 42.8016 180.834 42.8813 180.755 43.0406L179.32 45.1922C178.284 45.4313 177.408 45.9891 176.691 46.7063C175.973 46.5469 175.256 46.5469 174.539 46.7063L172.547 45.1922C171.591 44.475 170.236 44.5547 169.359 45.4313V44.3156C169.359 44.0766 169.439 43.9172 169.598 43.7578ZM165.216 50.5312L167.766 47.2641C167.048 48.2203 166.969 48.6187 166.969 48.8578C166.969 48.9375 166.969 49.0172 166.889 49.1766C166.65 50.4516 166.012 53.7984 171.192 58.2609C175.017 61.5281 179.878 64.3969 182.747 65.3531C181.552 66.3891 180.277 67.2656 179.719 67.2656C179.48 67.2656 177.966 67.0266 169.678 64.3969C168.164 63.9188 167.208 62.4047 167.527 60.8109C167.686 59.775 167.527 58.6594 166.969 57.7031L164.977 54.0375C164.339 52.9219 164.419 51.5672 165.216 50.5312ZM163.542 57.8625L164.578 56.5875L165.614 58.5C165.933 59.1375 166.092 59.8547 166.012 60.5719C165.933 60.9703 165.933 61.3687 166.012 61.6875L163.941 60.0938C163.144 59.6156 162.984 58.5797 163.542 57.8625Z" fill="black"/>
<path d="M43.07 60.97L43.37 62.38C43.37 62.72 43.25 63 43.01 63.22C42.77 63.44 42.49 63.55 42.17 63.55C41.85 63.55 41.61 63.4 41.45 63.1C41.31 62.8 41.24 62.47 41.24 62.11C41.24 61.03 41.7 60.06 42.62 59.2C43.56 58.32 44.62 57.88 45.8 57.88H45.98C46.38 56.36 46.98 55.6 47.78 55.6C48.02 55.6 48.14 55.92 48.14 56.56C48.14 56.68 48.11 57.16 48.05 58C48.35 58.04 48.7 58.09 49.1 58.15C50.04 58.29 50.82 58.36 51.44 58.36C52.08 58.36 52.72 58.26 53.36 58.06C54.02 57.84 54.46 57.73 54.68 57.73C55.24 57.73 55.52 58.02 55.52 58.6C55.52 59.16 55.22 59.59 54.62 59.89C54.02 60.17 53.15 60.31 52.01 60.31C50.87 60.31 49.48 60.05 47.84 59.53C47.6 60.91 47.46 61.95 47.42 62.65C47.38 63.35 47.34 64.39 47.3 65.77C48.14 65.73 49.3 65.71 50.78 65.71C51.04 65.71 51.26 65.81 51.44 66.01C51.64 66.21 51.74 66.42 51.74 66.64C51.74 66.86 51.67 67.04 51.53 67.18C51.39 67.32 51.24 67.39 51.08 67.39L47.27 67.18C47.19 69.14 47.12 70.47 47.06 71.17C47.02 71.87 46.83 72.52 46.49 73.12C46.15 73.72 45.75 74.02 45.29 74.02C45.03 74.02 44.74 73.88 44.42 73.6C44.12 73.34 43.97 73.09 43.97 72.85C43.97 72.61 44 72.43 44.06 72.31C44.14 72.17 44.22 72.04 44.3 71.92C44.4 71.78 44.47 71.67 44.51 71.59C44.75 71.07 44.97 69.64 45.17 67.3L44 67.45C43.84 67.45 43.71 67.4 43.61 67.3C43.51 67.18 43.46 67.05 43.46 66.91C43.46 66.75 43.49 66.61 43.55 66.49C43.61 66.37 43.73 66.28 43.91 66.22C44.09 66.14 44.22 66.09 44.3 66.07C44.62 65.99 44.94 65.95 45.26 65.95C45.3 65.47 45.35 64.43 45.41 62.83C45.49 61.23 45.6 59.98 45.74 59.08C45.62 59.06 45.44 59.05 45.2 59.05C43.78 59.05 43.07 59.69 43.07 60.97ZM66.2054 57.94L66.3254 63.52C66.3254 70.24 64.0254 73.6 59.4254 73.6C58.5254 73.6 57.7054 73.39 56.9654 72.97C56.2454 72.55 55.8854 71.9 55.8854 71.02C55.8854 70.48 56.0254 70.04 56.3054 69.7C56.5854 69.34 56.9554 69.16 57.4154 69.16C57.8954 69.16 58.1354 69.27 58.1354 69.49C58.1354 69.59 58.0754 69.79 57.9554 70.09C57.8354 70.37 57.7754 70.66 57.7754 70.96C57.7754 71.24 57.9454 71.55 58.2854 71.89C58.6254 72.21 59.1354 72.37 59.8154 72.37C60.4954 72.37 61.0854 72.23 61.5854 71.95C62.0854 71.67 62.4854 71.26 62.7854 70.72C63.0854 70.16 63.3254 69.59 63.5054 69.01C63.7054 68.43 63.8454 67.7 63.9254 66.82C64.0454 65.52 64.1054 64.05 64.1054 62.41C64.1054 60.75 64.1254 59.38 64.1654 58.3C61.6054 58.74 60.3254 59.84 60.3254 61.6C60.3254 62.1 60.2154 62.49 59.9954 62.77C59.7954 63.05 59.5354 63.19 59.2154 63.19C58.6154 63.19 58.3154 62.85 58.3154 62.17C58.3154 60.95 58.8454 59.93 59.9054 59.11C60.9854 58.29 62.4454 57.68 64.2854 57.28C64.4254 56.46 64.7654 55.8 65.3054 55.3C65.8454 54.78 66.3354 54.52 66.7754 54.52C67.2154 54.52 67.5654 54.65 67.8254 54.91C68.1054 55.15 68.2454 55.48 68.2454 55.9C68.2454 56.88 67.5654 57.56 66.2054 57.94ZM67.0154 55.54C66.5754 55.54 66.3154 55.99 66.2354 56.89C66.9554 56.67 67.3154 56.38 67.3154 56.02C67.3154 55.7 67.2154 55.54 67.0154 55.54ZM86.2667 74.29L87.2567 74.05C87.5767 74.05 87.7367 74.21 87.7367 74.53C87.7167 75.05 87.4467 75.51 86.9267 75.91C86.4267 76.33 85.8567 76.54 85.2167 76.54C84.5767 76.54 84.0667 76.23 83.6867 75.61C83.1467 74.71 82.6367 73.1 82.1567 70.78C81.9367 69.66 81.6767 68.74 81.3767 68.02C80.8367 68.2 80.2667 68.29 79.6667 68.29C79.0667 68.29 78.5367 68.17 78.0767 67.93C77.6367 67.67 77.4167 67.36 77.4167 67C77.4567 66.08 78.1967 65.62 79.6367 65.62C80.3367 65.62 81.0867 65.93 81.8867 66.55C83.1267 65.61 83.7467 64.3 83.7467 62.62C83.7467 61.62 83.5567 60.74 83.1767 59.98C82.7967 59.2 82.2967 58.59 81.6767 58.15C80.4567 57.29 79.0967 56.86 77.5967 56.86C77.5567 57.3 77.4867 58 77.3867 58.96C77.1867 60.96 77.0667 62.51 77.0267 63.61L76.9367 68.35C76.9367 71.99 76.2167 73.81 74.7767 73.81C73.8567 73.81 73.3967 73.42 73.3967 72.64C73.3967 72.44 73.5267 72.1 73.7867 71.62C74.0667 71.14 74.2667 70.59 74.3867 69.97C74.5067 69.33 74.6367 67.48 74.7767 64.42C74.9167 61.34 75.1067 58.92 75.3467 57.16C74.2867 57.46 73.4167 57.92 72.7367 58.54C72.0767 59.16 71.7467 59.89 71.7467 60.73C71.7467 61.21 71.6367 61.6 71.4167 61.9C71.1967 62.18 70.9267 62.32 70.6067 62.32C70.0267 62.32 69.7367 62.01 69.7367 61.39C69.7367 59.99 70.2967 58.84 71.4167 57.94C72.5567 57.02 73.9567 56.36 75.6167 55.96C76.0167 54.62 76.5767 53.95 77.2967 53.95C77.5767 53.95 77.7167 54.27 77.7167 54.91C77.7167 55.05 77.6967 55.3 77.6567 55.66C77.8767 55.62 78.2967 55.6 78.9167 55.6C79.5367 55.6 80.2367 55.69 81.0167 55.87C81.7967 56.05 82.5767 56.36 83.3567 56.8C84.1567 57.22 84.7967 57.87 85.2767 58.75C85.7567 59.61 85.9967 60.62 85.9967 61.78C85.9967 62.94 85.6967 64.02 85.0967 65.02C84.4967 66.02 83.7167 66.82 82.7567 67.42C83.4367 68.26 83.9667 69.29 84.3467 70.51C84.7467 71.73 85.1167 72.66 85.4567 73.3C85.7967 73.96 86.0667 74.29 86.2667 74.29ZM78.6467 66.64C78.6467 66.8 78.7867 66.94 79.0667 67.06C79.3467 67.18 79.6367 67.24 79.9367 67.24C80.2567 67.24 80.5467 67.19 80.8067 67.09C80.4067 66.63 79.9467 66.4 79.4267 66.4C78.9067 66.4 78.6467 66.48 78.6467 66.64ZM99.0463 59.23L99.1963 58.45C99.1163 57.37 98.3863 56.83 97.0063 56.83C96.2063 56.83 95.5063 57.12 94.9063 57.7C94.3263 58.26 94.0363 58.86 94.0363 59.5C94.0363 60.12 94.2963 60.67 94.8163 61.15C95.3563 61.61 95.9963 62.03 96.7363 62.41C97.4963 62.77 98.2463 63.17 98.9863 63.61C99.7463 64.03 100.386 64.58 100.906 65.26C101.446 65.94 101.716 66.71 101.716 67.57C101.716 69.35 101.016 70.75 99.6163 71.77C98.2163 72.79 96.7063 73.3 95.0863 73.3C93.4663 73.3 92.1163 73.01 91.0363 72.43C89.9563 71.83 89.4163 70.93 89.4163 69.73C89.4163 69.09 89.6363 68.51 90.0763 67.99C90.5163 67.47 91.1463 67.21 91.9663 67.21C92.2863 67.21 92.5763 67.3 92.8363 67.48C93.0963 67.66 93.2563 67.9 93.3163 68.2C93.3163 68.5 93.1363 68.65 92.7763 68.65C92.0963 68.65 91.7563 68.94 91.7563 69.52C91.7763 70.18 92.0863 70.78 92.6863 71.32C93.3063 71.86 94.1663 72.13 95.2663 72.13C96.3863 72.13 97.3363 71.75 98.1163 70.99C98.9163 70.23 99.3163 69.31 99.3163 68.23C99.3163 67.51 99.0463 66.86 98.5063 66.28C97.9663 65.7 97.3163 65.21 96.5563 64.81C95.7963 64.39 95.0263 63.97 94.2463 63.55C93.4863 63.13 92.8363 62.62 92.2963 62.02C91.7563 61.42 91.4863 60.74 91.4863 59.98C91.4863 58.64 92.0563 57.57 93.1963 56.77C94.3563 55.97 95.6663 55.57 97.1263 55.57C98.1063 55.57 98.9963 55.77 99.7963 56.17C100.596 56.57 101.006 57.18 101.026 58C101.026 58.48 100.906 58.88 100.666 59.2C100.426 59.52 100.096 59.68 99.6763 59.68C99.2763 59.68 99.0663 59.53 99.0463 59.23ZM114.422 63.22V58.12C114.042 58.04 113.492 57.92 112.772 57.76C112.052 57.58 111.502 57.45 111.122 57.37C109.982 57.13 109.082 57.01 108.422 57.01C107.162 57.01 106.532 57.36 106.532 58.06C106.532 58.84 106.792 59.5 107.312 60.04C107.852 60.58 108.332 60.85 108.752 60.85C109.172 60.85 109.542 60.74 109.862 60.52C110.202 60.3 110.502 60.19 110.762 60.19C111.102 60.19 111.272 60.37 111.272 60.73C111.272 61.07 111.112 61.35 110.792 61.57C110.492 61.79 110.012 61.9 109.352 61.9C108.292 61.9 107.392 61.44 106.652 60.52C105.912 59.6 105.542 58.66 105.542 57.7C105.542 56.74 105.762 56.02 106.202 55.54C106.642 55.06 107.192 54.82 107.852 54.82C109.372 54.82 111.632 55.3 114.632 56.26C114.872 55 115.322 54.37 115.982 54.37C116.282 54.37 116.432 55.19 116.432 56.83C118.372 57.43 120.042 57.73 121.442 57.73C122.342 57.73 123.132 57.44 123.812 56.86C124.012 56.7 124.182 56.62 124.322 56.62C124.482 56.62 124.562 56.69 124.562 56.83C124.562 57.37 124.162 57.86 123.362 58.3C122.562 58.72 121.602 58.93 120.482 58.93C119.362 58.93 118.012 58.79 116.432 58.51C116.472 61.27 116.492 63.17 116.492 64.21C116.492 65.25 116.452 66.14 116.372 66.88C116.312 67.62 116.162 68.4 115.922 69.22C115.682 70.02 115.362 70.7 114.962 71.26C114.582 71.8 114.042 72.25 113.342 72.61C112.662 72.97 111.862 73.15 110.942 73.15C110.042 73.15 109.222 72.94 108.482 72.52C107.762 72.1 107.402 71.45 107.402 70.57C107.402 70.03 107.542 69.59 107.822 69.25C108.102 68.89 108.472 68.71 108.932 68.71C109.412 68.71 109.652 68.82 109.652 69.04C109.652 69.14 109.592 69.34 109.472 69.64C109.352 69.92 109.292 70.21 109.292 70.51C109.292 70.79 109.472 71.1 109.832 71.44C110.212 71.78 110.752 71.95 111.452 71.95C113.432 71.95 114.422 69.04 114.422 63.22ZM268.341 74.29L269.331 74.05C269.651 74.05 269.811 74.21 269.811 74.53C269.791 75.05 269.521 75.51 269.001 75.91C268.501 76.33 267.931 76.54 267.291 76.54C266.651 76.54 266.141 76.23 265.761 75.61C265.221 74.71 264.711 73.1 264.231 70.78C264.011 69.66 263.751 68.74 263.451 68.02C262.911 68.2 262.341 68.29 261.741 68.29C261.141 68.29 260.611 68.17 260.151 67.93C259.711 67.67 259.491 67.36 259.491 67C259.531 66.08 260.271 65.62 261.711 65.62C262.411 65.62 263.161 65.93 263.961 66.55C265.201 65.61 265.821 64.3 265.821 62.62C265.821 61.62 265.631 60.74 265.251 59.98C264.871 59.2 264.371 58.59 263.751 58.15C262.531 57.29 261.171 56.86 259.671 56.86C259.631 57.3 259.561 58 259.461 58.96C259.261 60.96 259.141 62.51 259.101 63.61L259.011 68.35C259.011 71.99 258.291 73.81 256.851 73.81C255.931 73.81 255.471 73.42 255.471 72.64C255.471 72.44 255.601 72.1 255.861 71.62C256.141 71.14 256.341 70.59 256.461 69.97C256.581 69.33 256.711 67.48 256.851 64.42C256.991 61.34 257.181 58.92 257.421 57.16C256.361 57.46 255.491 57.92 254.811 58.54C254.151 59.16 253.821 59.89 253.821 60.73C253.821 61.21 253.711 61.6 253.491 61.9C253.271 62.18 253.001 62.32 252.681 62.32C252.101 62.32 251.811 62.01 251.811 61.39C251.811 59.99 252.371 58.84 253.491 57.94C254.631 57.02 256.031 56.36 257.691 55.96C258.091 54.62 258.651 53.95 259.371 53.95C259.651 53.95 259.791 54.27 259.791 54.91C259.791 55.05 259.771 55.3 259.731 55.66C259.951 55.62 260.371 55.6 260.991 55.6C261.611 55.6 262.311 55.69 263.091 55.87C263.871 56.05 264.651 56.36 265.431 56.8C266.231 57.22 266.871 57.87 267.351 58.75C267.831 59.61 268.071 60.62 268.071 61.78C268.071 62.94 267.771 64.02 267.171 65.02C266.571 66.02 265.791 66.82 264.831 67.42C265.511 68.26 266.041 69.29 266.421 70.51C266.821 71.73 267.191 72.66 267.531 73.3C267.871 73.96 268.141 74.29 268.341 74.29ZM260.721 66.64C260.721 66.8 260.861 66.94 261.141 67.06C261.421 67.18 261.711 67.24 262.011 67.24C262.331 67.24 262.621 67.19 262.881 67.09C262.481 66.63 262.021 66.4 261.501 66.4C260.981 66.4 260.721 66.48 260.721 66.64ZM271.76 66.31C271.76 64.97 272.01 63.65 272.51 62.35C273.03 61.03 273.77 59.94 274.73 59.08C274.97 57.78 275.59 56.73 276.59 55.93C277.61 55.11 279.06 54.7 280.94 54.7C282.82 54.7 284.32 55.44 285.44 56.92C286.58 58.38 287.15 60.29 287.15 62.65C287.15 64.19 286.92 65.65 286.46 67.03C287.38 66.71 288.21 66.31 288.95 65.83C289.71 65.33 290.1 65.08 290.12 65.08C290.34 65.08 290.45 65.21 290.45 65.47C290.45 65.69 289.97 66.12 289.01 66.76C288.05 67.38 287.06 67.82 286.04 68.08C285.3 69.7 284.25 70.98 282.89 71.92C281.53 72.84 279.88 73.3 277.94 73.3C276.02 73.3 274.51 72.66 273.41 71.38C272.31 70.08 271.76 68.39 271.76 66.31ZM284.42 67.39C284.68 66.49 284.81 65.49 284.81 64.39C284.81 62.03 284.36 60.03 283.46 58.39C282.58 56.75 281.32 55.93 279.68 55.93C278.98 55.93 278.28 56.13 277.58 56.53C276.9 56.91 276.41 57.43 276.11 58.09C277.15 57.51 278.2 57.22 279.26 57.22C280.34 57.22 280.88 57.37 280.88 57.67C280.88 57.85 280.81 57.99 280.67 58.09C280.53 58.19 280.39 58.24 280.25 58.24C278.53 58.24 277.07 58.82 275.87 59.98C276.03 62.02 276.92 63.77 278.54 65.23C280.18 66.67 282.14 67.39 284.42 67.39ZM279.08 71.77C281.48 71.77 283.15 70.64 284.09 68.38C281.69 68.38 279.6 67.75 277.82 66.49C276.06 65.23 275.02 63.58 274.7 61.54C274.14 62.6 273.86 63.79 273.86 65.11C273.86 66.93 274.36 68.5 275.36 69.82C276.38 71.12 277.62 71.77 279.08 71.77ZM300.499 59.23L300.649 58.45C300.569 57.37 299.839 56.83 298.459 56.83C297.659 56.83 296.959 57.12 296.359 57.7C295.779 58.26 295.489 58.86 295.489 59.5C295.489 60.12 295.749 60.67 296.269 61.15C296.809 61.61 297.449 62.03 298.189 62.41C298.949 62.77 299.699 63.17 300.439 63.61C301.199 64.03 301.839 64.58 302.359 65.26C302.899 65.94 303.169 66.71 303.169 67.57C303.169 69.35 302.469 70.75 301.069 71.77C299.669 72.79 298.159 73.3 296.539 73.3C294.919 73.3 293.569 73.01 292.489 72.43C291.409 71.83 290.869 70.93 290.869 69.73C290.869 69.09 291.089 68.51 291.529 67.99C291.969 67.47 292.599 67.21 293.419 67.21C293.739 67.21 294.029 67.3 294.289 67.48C294.549 67.66 294.709 67.9 294.769 68.2C294.769 68.5 294.589 68.65 294.229 68.65C293.549 68.65 293.209 68.94 293.209 69.52C293.229 70.18 293.539 70.78 294.139 71.32C294.759 71.86 295.619 72.13 296.719 72.13C297.839 72.13 298.789 71.75 299.569 70.99C300.369 70.23 300.769 69.31 300.769 68.23C300.769 67.51 300.499 66.86 299.959 66.28C299.419 65.7 298.769 65.21 298.009 64.81C297.249 64.39 296.479 63.97 295.699 63.55C294.939 63.13 294.289 62.62 293.749 62.02C293.209 61.42 292.939 60.74 292.939 59.98C292.939 58.64 293.509 57.57 294.649 56.77C295.809 55.97 297.119 55.57 298.579 55.57C299.559 55.57 300.449 55.77 301.249 56.17C302.049 56.57 302.459 57.18 302.479 58C302.479 58.48 302.359 58.88 302.119 59.2C301.879 59.52 301.549 59.68 301.129 59.68C300.729 59.68 300.519 59.53 300.499 59.23ZM315.274 63.55C315.274 63.31 315.114 63.11 314.794 62.95C314.474 62.77 314.104 62.68 313.684 62.68C313.264 62.68 312.854 62.78 312.454 62.98C313.134 63.6 313.884 63.91 314.704 63.91C314.884 63.91 315.024 63.87 315.124 63.79C315.224 63.69 315.274 63.61 315.274 63.55ZM316.684 58.54L316.744 57.73C316.744 57.29 316.574 56.88 316.234 56.5C315.914 56.1 315.474 55.9 314.914 55.9C313.954 55.9 313.084 56.33 312.304 57.19C311.524 58.05 311.134 58.97 311.134 59.95C311.134 60.91 311.384 61.72 311.884 62.38C312.744 62 313.544 61.81 314.284 61.81C315.024 61.81 315.614 61.94 316.054 62.2C316.514 62.44 316.744 62.81 316.744 63.31C316.744 63.81 316.494 64.18 315.994 64.42C315.514 64.66 314.974 64.78 314.374 64.78C313.254 64.78 312.234 64.47 311.314 63.85C310.834 64.35 310.444 64.94 310.144 65.62C309.864 66.3 309.724 66.93 309.724 67.51C309.724 68.69 310.104 69.77 310.864 70.75C311.624 71.73 312.634 72.22 313.894 72.22C316.534 72.22 318.684 70.48 320.344 67C320.904 65.86 321.254 65.29 321.394 65.29C321.554 65.29 321.634 65.37 321.634 65.53C321.634 66.33 321.134 67.54 320.134 69.16C319.154 70.76 318.084 71.88 316.924 72.52C315.784 73.14 314.374 73.45 312.694 73.45C311.034 73.45 309.724 72.96 308.764 71.98C307.804 71 307.324 69.78 307.324 68.32C307.324 67.36 307.604 66.44 308.164 65.56C308.744 64.66 309.484 63.89 310.384 63.25C309.444 62.47 308.974 61.53 308.974 60.43C308.974 58.91 309.564 57.63 310.744 56.59C311.924 55.53 313.354 55 315.034 55C316.134 55 317.054 55.29 317.794 55.87C318.554 56.43 318.934 57.1 318.934 57.88C318.934 58.32 318.804 58.68 318.544 58.96C318.284 59.24 317.954 59.38 317.554 59.38C316.974 59.38 316.684 59.1 316.684 58.54ZM331.52 59.23L331.67 58.45C331.59 57.37 330.86 56.83 329.48 56.83C328.68 56.83 327.98 57.12 327.38 57.7C326.8 58.26 326.51 58.86 326.51 59.5C326.51 60.12 326.77 60.67 327.29 61.15C327.83 61.61 328.47 62.03 329.21 62.41C329.97 62.77 330.72 63.17 331.46 63.61C332.22 64.03 332.86 64.58 333.38 65.26C333.92 65.94 334.19 66.71 334.19 67.57C334.19 69.35 333.49 70.75 332.09 71.77C330.69 72.79 329.18 73.3 327.56 73.3C325.94 73.3 324.59 73.01 323.51 72.43C322.43 71.83 321.89 70.93 321.89 69.73C321.89 69.09 322.11 68.51 322.55 67.99C322.99 67.47 323.62 67.21 324.44 67.21C324.76 67.21 325.05 67.3 325.31 67.48C325.57 67.66 325.73 67.9 325.79 68.2C325.79 68.5 325.61 68.65 325.25 68.65C324.57 68.65 324.23 68.94 324.23 69.52C324.25 70.18 324.56 70.78 325.16 71.32C325.78 71.86 326.64 72.13 327.74 72.13C328.86 72.13 329.81 71.75 330.59 70.99C331.39 70.23 331.79 69.31 331.79 68.23C331.79 67.51 331.52 66.86 330.98 66.28C330.44 65.7 329.79 65.21 329.03 64.81C328.27 64.39 327.5 63.97 326.72 63.55C325.96 63.13 325.31 62.62 324.77 62.02C324.23 61.42 323.96 60.74 323.96 59.98C323.96 58.64 324.53 57.57 325.67 56.77C326.83 55.97 328.14 55.57 329.6 55.57C330.58 55.57 331.47 55.77 332.27 56.17C333.07 56.57 333.48 57.18 333.5 58C333.5 58.48 333.38 58.88 333.14 59.2C332.9 59.52 332.57 59.68 332.15 59.68C331.75 59.68 331.54 59.53 331.52 59.23Z" fill="black"/>
</svg>
